<?xml version="1.0" standalone="no"?>
<!DOCTYPE svg PUBLIC "-//W3C//DTD SVG 20010904//EN"
 "http://www.w3.org/TR/2001/REC-SVG-20010904/DTD/svg10.dtd">
<svg version="1.0" xmlns="http://www.w3.org/2000/svg"
 width="704.000000pt" height="704.000000pt" viewBox="0 0 704.000000 704.000000"
 preserveAspectRatio="xMidYMid meet">
<metadata>
Created by potrace 1.14, written by Peter Selinger 2001-2017
</metadata>
<g transform="translate(0.000000,704.000000) scale(0.100000,-0.100000)"
fill="#000000" stroke="none">
<path d="M0 3520 l0 -3520 3520 0 3520 0 0 3520 0 3520 -3520 0 -3520 0 0
-3520z m3855 2244 c121 -41 375 -129 565 -194 190 -65 478 -164 640 -220 162
-56 327 -112 365 -125 39 -12 153 -52 255 -87 102 -36 222 -77 268 -92 l82
-28 0 -1557 0 -1558 -22 -11 c-13 -6 -104 -41 -203 -77 -99 -37 -232 -86 -295
-110 -100 -38 -684 -256 -970 -362 -52 -19 -104 -39 -115 -44 -11 -4 -197 -74
-414 -155 l-393 -146 -37 16 c-20 8 -196 74 -391 146 -195 73 -418 156 -495
185 -78 30 -208 78 -290 109 -83 30 -175 64 -205 76 -30 12 -66 25 -80 29 -14
5 -54 20 -90 34 -36 14 -110 42 -165 62 -55 20 -129 48 -165 62 -94 36 -147
55 -320 119 -85 31 -158 61 -161 67 -4 5 -7 706 -8 1557 -2 1259 0 1549 11
1557 7 5 56 24 108 41 52 17 208 70 345 117 138 48 295 102 350 120 55 19 179
61 275 95 96 34 265 92 375 130 426 146 700 240 700 240 0 4 226 78 240 79 11
0 119 -33 240 -75z"/>
<path d="M3632 5452 l3 -367 94 -7 c208 -16 415 -75 611 -173 106 -53 238
-136 242 -153 0 -4 2 -19 3 -34 2 -23 -1 -25 -19 -18 -12 4 -60 13 -107 19
-111 14 -283 63 -373 105 -39 18 -104 62 -146 98 -68 58 -110 86 -110 72 0 -3
15 -29 34 -58 38 -60 97 -111 171 -149 28 -14 46 -26 41 -27 -4 0 -34 14 -66
31 -61 33 -107 72 -148 129 -36 49 -74 90 -84 90 -13 0 -9 -21 18 -92 24 -65
62 -110 134 -161 24 -17 24 -17 -9 -1 -55 26 -118 98 -140 162 -27 75 -35 86
-56 91 -16 3 -18 -4 -12 -72 9 -124 55 -186 188 -257 41 -22 70 -40 65 -40
-21 0 -150 76 -186 111 -54 53 -70 89 -80 180 -4 44 -10 82 -13 85 -11 11 -36
-42 -45 -96 -11 -60 -4 -119 21 -166 19 -36 93 -106 136 -128 17 -9 31 -19 31
-21 0 -15 -89 44 -136 89 -30 29 -57 49 -60 44 -3 -5 -2 -38 1 -73 7 -60 10
-67 47 -96 21 -17 89 -58 151 -90 62 -32 109 -59 104 -59 -13 0 -211 102 -254
131 -23 16 -43 29 -46 29 -9 0 1 -171 12 -183 6 -8 8 -16 6 -19 -10 -10 114
-127 162 -153 26 -14 37 -23 23 -19 -32 8 -90 45 -138 89 -41 37 -65 34 -62
-6 1 -13 1 -28 0 -34 -4 -22 1 -172 7 -203 l6 -34 116 6 116 5 -113 -14 c-63
-7 -116 -16 -119 -18 -7 -8 -8 -75 -1 -83 4 -3 49 1 101 10 52 9 105 16 118
15 13 0 -22 -9 -77 -20 -56 -10 -113 -23 -127 -28 -24 -9 -25 -12 -14 -40 8
-23 16 -29 32 -26 89 21 257 55 267 54 9 0 -282 -77 -299 -79 -7 -1 6 -55 14
-57 6 -2 87 16 179 41 93 25 187 48 209 51 22 3 -3 -6 -55 -20 -114 -31 -286
-82 -317 -95 -22 -9 -33 -53 -15 -63 4 -3 57 11 117 30 233 73 348 103 393
102 47 -2 47 -2 -13 -9 -70 -9 -135 -28 -340 -99 -164 -57 -182 -69 -156 -109
6 -10 54 2 222 58 274 92 314 97 422 47 42 -20 77 -38 77 -41 0 -3 -30 9 -67
26 -98 46 -146 47 -273 5 -58 -19 -165 -58 -239 -85 -139 -52 -164 -71 -138
-106 11 -14 36 -7 222 57 206 70 212 72 310 71 81 0 111 -4 158 -23 76 -30 68
-38 -9 -10 -98 36 -196 31 -324 -15 -58 -21 -160 -57 -227 -79 -87 -30 -125
-48 -133 -64 -35 -62 34 -55 283 30 l182 62 125 -1 c77 0 135 -5 150 -12 l25
-13 -25 6 c-14 3 -59 8 -100 11 -90 8 -167 -9 -376 -84 -76 -27 -162 -55 -191
-62 -60 -14 -78 -30 -69 -64 l6 -24 68 13 c91 18 161 38 322 92 118 41 148 47
240 51 58 2 120 0 138 -4 23 -7 -1 -9 -85 -9 l-118 0 -190 -66 c-104 -36 -232
-76 -283 -89 -81 -20 -93 -25 -98 -47 -9 -33 10 -45 61 -37 57 8 308 78 455
126 112 37 137 42 235 44 l110 2 -90 -7 c-66 -6 -131 -22 -245 -59 -251 -82
-420 -132 -449 -132 -43 0 -69 -11 -74 -30 -12 -47 197 -39 354 13 57 20 169
58 249 87 147 52 251 71 297 53 15 -6 1 -8 -50 -9 -75 -2 -83 -4 -362 -111
-180 -69 -220 -78 -367 -78 -71 0 -128 -3 -128 -7 0 -5 5 -8 11 -8 5 0 8 -4 5
-9 -8 -12 69 -21 173 -21 161 0 332 38 515 115 132 55 168 63 201 41 20 -13
25 -24 24 -54 l-1 -37 -8 34 c-4 18 -14 38 -22 43 -22 15 -78 2 -178 -40 -204
-87 -416 -129 -601 -118 -89 5 -106 4 -106 -8 0 -21 14 -25 129 -32 116 -7
267 6 403 36 50 11 124 28 166 37 83 18 109 12 109 -27 0 -30 -68 -153 -110
-200 l-41 -45 37 50 c47 64 86 148 82 177 -4 33 -52 34 -179 4 -177 -41 -256
-50 -431 -50 -127 1 -168 -2 -168 -11 0 -22 82 -30 337 -30 226 0 254 -2 270
-17 16 -17 16 -20 -1 -55 -25 -53 -68 -104 -123 -148 l-48 -38 56 59 c60 62
89 109 89 143 0 33 -64 44 -204 36 -67 -4 -179 -2 -250 4 -71 6 -131 9 -133 7
-2 -2 -1 -10 2 -19 7 -16 29 -21 248 -56 65 -11 124 -25 132 -31 51 -43 -41
-147 -201 -227 -54 -27 -114 -55 -133 -61 -25 -9 -32 -15 -24 -23 14 -14 203
49 293 97 36 19 56 27 45 18 -25 -21 -191 -100 -227 -109 -16 -4 -28 -10 -28
-14 0 -4 -11 -8 -25 -9 -29 -2 -90 -31 -82 -38 5 -5 76 11 112 25 11 4 52 18
90 31 39 12 103 38 143 56 83 38 96 37 20 -2 -88 -45 -199 -89 -286 -114 -86
-25 -113 -45 -39 -29 81 18 266 80 342 114 41 19 75 32 75 29 0 -12 -173 -85
-295 -124 -71 -24 -134 -46 -139 -51 -15 -14 0 -11 99 15 129 35 278 91 365
137 41 21 66 32 55 23 -49 -39 -214 -112 -375 -166 -117 -39 -159 -56 -127
-52 66 8 333 96 434 144 46 21 83 36 83 34 0 -14 -226 -110 -377 -160 -95 -31
-173 -61 -173 -66 0 -5 8 -7 18 -4 9 3 78 24 152 47 314 95 479 183 655 348
l60 56 -50 -53 c-151 -162 -375 -281 -732 -391 -101 -31 -141 -53 -84 -46 16
2 111 31 210 64 303 101 463 188 625 339 77 72 78 73 21 13 -75 -79 -189 -165
-297 -224 -85 -46 -303 -132 -461 -182 -76 -24 -125 -50 -115 -61 6 -5 372
122 472 165 257 110 458 269 560 444 40 70 59 91 30 35 -36 -69 -98 -151 -166
-219 -157 -155 -329 -249 -688 -374 -163 -57 -210 -76 -210 -87 0 -14 37 -9
87 13 26 11 118 45 203 76 467 166 722 364 842 653 15 36 28 57 28 47 0 -9
-13 -46 -29 -81 -81 -180 -233 -334 -456 -465 -89 -52 -159 -83 -445 -195
-180 -70 -275 -116 -241 -116 8 0 11 -6 7 -16 -5 -13 1 -12 26 5 62 41 126 70
259 120 374 138 553 243 718 417 122 130 183 239 215 386 8 35 14 52 15 38 3
-75 -70 -247 -149 -352 -139 -183 -318 -306 -645 -442 -305 -128 -346 -146
-390 -176 -51 -35 -55 -41 -23 -32 19 5 20 4 7 -10 -7 -9 -17 -14 -20 -12 -3
2 -6 -3 -6 -11 0 -8 16 -1 40 20 54 46 163 101 342 171 169 66 343 151 449
221 39 26 121 97 181 157 160 161 232 298 261 496 l13 95 -5 -89 c-9 -140 -63
-277 -158 -406 -59 -79 -193 -201 -292 -266 -108 -70 -133 -108 -36 -53 188
105 358 282 451 466 65 129 93 311 69 448 l-7 40 15 -45 c11 -33 14 -76 12
-162 -3 -78 -1 -118 6 -118 6 0 2 -7 -9 -16 -17 -13 -18 -16 -5 -24 13 -8 13
-10 -1 -10 -9 0 -20 -14 -26 -35 -6 -20 -7 -35 -2 -35 5 0 9 10 9 23 0 16 3
18 9 9 6 -10 10 -6 16 15 5 15 8 31 7 35 -1 4 5 19 13 34 10 20 11 33 3 47 -8
15 -7 18 3 12 9 -6 11 -2 7 13 -4 12 -2 22 3 22 10 0 6 223 -5 260 -6 19 -5
21 3 10 29 -41 38 -219 16 -335 -3 -16 -2 -24 1 -17 3 6 10 9 16 6 6 -4 8 1 3
15 -4 13 -2 21 5 21 7 0 10 6 7 14 -3 8 -1 16 5 18 8 3 11 47 11 134 0 113 -4
139 -27 209 -15 44 -39 100 -53 124 -14 24 -20 40 -14 37 19 -12 79 -139 96
-206 9 -35 18 -99 20 -142 3 -43 7 -84 11 -90 4 -7 3 -8 -4 -4 -7 4 -12 1 -12
-9 0 -9 6 -15 13 -12 7 2 12 23 12 55 -1 29 3 52 9 52 11 0 1 131 -19 225 -18
85 -79 212 -135 279 -46 56 -55 77 -10 26 108 -125 168 -260 185 -418 10 -93
25 -86 25 12 0 106 -20 210 -59 312 -38 98 -84 169 -170 259 -55 58 -42 51 29
-16 40 -38 104 -128 132 -184 32 -66 78 -213 78 -251 0 -12 5 -26 10 -29 11
-7 12 70 2 89 -2 4 -6 31 -8 60 -5 62 -36 169 -74 252 -43 96 -101 174 -192
259 -83 78 -66 75 24 -4 98 -87 179 -217 229 -371 37 -113 37 -74 -1 70 -43
159 -113 299 -196 389 -81 87 -136 128 -266 197 -116 60 -124 69 -22 23 297
-135 455 -352 528 -729 19 -102 34 -317 26 -382 -4 -26 -3 -45 2 -42 4 3 8 1
8 -5 0 -5 -5 -11 -10 -13 -6 -2 -11 -31 -13 -65 -1 -33 -6 -59 -10 -56 -5 3
-5 -12 -1 -32 4 -26 3 -40 -6 -45 -7 -4 -14 -20 -15 -34 -2 -15 -8 -32 -13
-39 -5 -7 -8 -20 -7 -29 2 -10 -1 -18 -6 -18 -5 0 -9 -5 -9 -11 0 -5 5 -7 10
-4 6 3 10 -1 10 -9 0 -9 -7 -16 -16 -16 -14 0 -14 -3 -4 -16 8 -8 9 -14 4 -13
-27 5 -36 -1 -24 -16 10 -12 9 -15 -6 -15 -16 0 -17 -2 -4 -10 13 -9 13 -10 0
-10 -9 0 -16 -9 -16 -19 0 -11 4 -17 8 -15 4 3 8 1 8 -4 0 -6 -7 -13 -16 -16
-10 -4 -14 -12 -10 -23 4 -10 4 -14 0 -10 -4 3 -18 -15 -32 -41 -14 -26 -31
-50 -38 -55 -7 -4 -11 -14 -8 -22 4 -9 0 -15 -10 -15 -9 0 -16 -5 -16 -11 0
-5 4 -8 8 -5 5 3 9 -2 9 -10 0 -8 -6 -13 -14 -10 -9 4 -13 0 -11 -12 2 -11 -4
-18 -18 -20 -17 -2 -21 -8 -16 -24 4 -17 2 -20 -12 -15 -9 4 -15 3 -12 -2 3
-4 -4 -25 -14 -47 -11 -21 -20 -33 -20 -26 0 7 -8 12 -17 12 -10 0 -14 -4 -8
-8 20 -14 14 -29 -10 -25 -22 5 -23 2 -23 -41 1 -45 -10 -73 -19 -48 -6 17
-23 15 -23 -3 0 -9 -6 -12 -15 -9 -8 4 -15 2 -15 -4 0 -14 65 -34 240 -75 191
-45 212 -49 205 -36 -5 6 9 8 40 3 38 -5 46 -3 40 8 -3 7 1 4 9 -6 9 -11 16
-15 16 -8 0 6 7 9 15 6 11 -4 13 -2 9 9 -7 19 8 28 26 16 10 -6 11 -9 3 -9 -7
0 -13 -4 -13 -10 0 -5 7 -10 15 -10 14 0 19 12 16 32 0 5 4 8 9 8 6 0 10 -5
10 -11 0 -6 7 -18 16 -27 15 -15 16 -14 10 6 -6 18 -3 22 13 22 12 0 21 -5 21
-11 0 -8 5 -7 15 1 20 16 32 5 16 -14 -10 -12 -9 -14 6 -11 10 2 23 4 28 4 6
1 4 5 -3 10 -8 4 -13 11 -13 15 1 12 29 36 43 36 10 0 9 -3 -2 -10 -20 -12
-12 -18 38 -26 35 -5 42 -4 42 10 0 9 -7 16 -15 16 -8 0 -15 4 -15 10 0 6 9 6
23 1 23 -9 31 -11 46 -11 5 0 7 -8 4 -19 -3 -11 2 -21 12 -25 9 -3 13 -11 9
-18 -5 -10 -4 -10 7 0 11 10 11 16 0 33 -10 18 -10 20 1 15 7 -3 21 -9 31 -12
9 -4 17 -14 17 -24 0 -10 7 -21 16 -24 14 -5 15 -4 5 7 -9 11 -8 17 3 26 12
10 18 9 32 -8 20 -23 36 -19 28 7 -5 15 -4 15 6 -1 6 -10 16 -14 23 -10 8 4 7
1 -1 -9 -8 -9 -23 -19 -35 -21 -21 -3 -21 -4 -2 -12 11 -5 24 -13 28 -19 5 -7
6 -3 3 8 -4 13 1 24 15 34 l22 15 -24 18 c-13 10 -19 19 -13 19 5 0 15 -5 21
-11 8 -8 17 -7 34 5 13 9 19 16 13 16 -5 0 -16 -6 -23 -13 -10 -10 -11 -9 -6
6 4 9 11 17 15 17 5 0 8 8 8 18 -1 9 2 27 6 40 4 13 3 22 -3 22 -6 0 -8 7 -5
15 6 14 8 13 20 -2 12 -17 13 -16 11 5 -1 12 -4 22 -7 22 -4 0 -7 7 -7 15 0 8
4 15 9 15 5 0 9 24 8 53 -1 28 2 629 6 1335 5 1163 5 1282 -10 1282 -8 0 -73
-16 -143 -36 -70 -20 -141 -39 -158 -44 -16 -5 -124 -35 -240 -68 -322 -93
-428 -121 -418 -112 4 5 40 18 78 28 39 11 126 37 195 57 69 21 193 56 275 80
345 96 385 109 377 117 -8 8 -75 32 -372 133 -102 35 -239 82 -305 105 -66 23
-210 73 -320 110 -205 70 -607 208 -1073 369 l-262 90 2 -367z m425 -759 c-5
-4 -97 34 -97 41 0 3 23 -5 50 -16 28 -11 49 -23 47 -25z m148 27 c13 -6 15
-9 5 -9 -8 0 -22 4 -30 9 -18 12 -2 12 25 0z m211 -55 c188 -47 209 -51 199
-36 -5 9 7 9 59 2 5 0 3 -7 -3 -14 -9 -11 1 -17 52 -32 90 -25 94 -27 80 -32
-6 -2 -112 23 -235 57 -383 105 -455 131 -152 55z m-316 15 c8 -5 11 -10 5
-10 -5 0 -17 5 -25 10 -8 5 -10 10 -5 10 6 0 17 -5 25 -10z m474 -145 c211
-70 322 -130 404 -219 49 -53 108 -142 128 -194 19 -48 1 -24 -46 60 -19 35
-66 95 -105 133 -87 87 -185 140 -390 212 -82 28 -145 52 -139 52 6 1 72 -19
148 -44z m-564 -1 c39 -15 69 -28 67 -31 -4 -4 -137 44 -146 52 -9 10 9 5 79
-21z m856 -385 c3 -6 -5 -3 -20 6 -14 10 -26 19 -26 22 0 7 39 -17 46 -28z
m25 -176 c13 -16 12 -17 -3 -4 -17 13 -22 21 -14 21 2 0 10 -8 17 -17z m-943
-30 c-10 -2 -26 -2 -35 0 -10 3 -2 5 17 5 19 0 27 -2 18 -5z m1011 -180 c2 -2
2 -5 -1 -8 -2 -3 -18 10 -34 28 l-29 32 30 -25 c17 -14 32 -26 34 -27z m-13
-125 l29 -33 -32 29 c-31 28 -38 36 -30 36 2 0 16 -15 33 -32z m55 -65 c13
-16 12 -17 -3 -4 -10 7 -18 15 -18 17 0 8 8 3 21 -13z m-81 -28 c13 -14 21
-25 18 -25 -2 0 -15 11 -28 25 -13 14 -21 25 -18 25 2 0 15 -11 28 -25z m-460
-5 c8 -5 11 -10 5 -10 -5 0 -17 5 -25 10 -8 5 -10 10 -5 10 6 0 17 -5 25 -10z
m542 -107 c14 -27 29 -59 32 -73 3 -14 -5 -1 -18 28 -14 29 -35 67 -48 85 -12
18 -15 26 -7 20 9 -7 27 -34 41 -60z m-371 -200 c13 -16 12 -17 -3 -4 -17 13
-22 21 -14 21 2 0 10 -8 17 -17z m326 -70 c-3 -10 -5 -4 -5 12 0 17 2 24 5 18
2 -7 2 -21 0 -30z m-40 -95 c-2 -13 -4 -3 -4 22 0 25 2 35 4 23 2 -13 2 -33 0
-45z m-330 -10 c-3 -8 -6 -5 -6 6 -1 11 2 17 5 13 3 -3 4 -12 1 -19z m-7 -252
c0 -2 -8 -10 -17 -17 -16 -13 -17 -12 -4 4 13 16 21 21 21 13z m-140 -20 c0
-2 -8 -10 -17 -17 -16 -13 -17 -12 -4 4 13 16 21 21 21 13z m206 -41 c-36 -47
-43 -45 -8 4 15 21 29 37 31 35 2 -2 -8 -19 -23 -39z m-96 22 c0 -2 -10 -12
-22 -23 l-23 -19 19 23 c18 21 26 27 26 19z m-70 -11 c0 -2 -8 -10 -17 -17
-16 -13 -17 -12 -4 4 13 16 21 21 21 13z m120 0 c0 -2 -8 -10 -17 -17 -16 -13
-17 -12 -4 4 13 16 21 21 21 13z m-230 -39 c0 -2 -19 -21 -42 -42 l-43 -40 40
43 c36 39 45 47 45 39z m30 -42 c-24 -25 -46 -45 -49 -45 -3 0 15 20 39 45 24
25 46 45 49 45 3 0 -15 -20 -39 -45z m100 32 c0 -2 -17 -19 -37 -38 l-38 -34
34 38 c33 34 41 42 41 34z m-230 -10 c0 -2 -10 -12 -22 -23 l-23 -19 19 23
c18 21 26 27 26 19z m-50 -41 c0 -2 -8 -10 -17 -17 -16 -13 -17 -12 -4 4 13
16 21 21 21 13z m-115 -16 c-3 -5 -16 -15 -28 -21 -19 -9 -19 -8 3 10 28 23
34 26 25 11z m315 -3 c0 -2 -15 -16 -32 -33 l-33 -29 29 33 c28 30 36 37 36
29z m-248 -19 c-6 -7 -25 -22 -44 -32 -39 -23 -32 -13 14 20 38 26 45 29 30
12z m168 9 c0 -2 -10 -12 -22 -23 l-23 -19 19 23 c18 21 26 27 26 19z m785
-17 c3 -5 1 -10 -4 -10 -6 0 -11 5 -11 10 0 6 2 10 4 10 3 0 8 -4 11 -10z
m-890 -10 c-3 -5 -16 -15 -28 -21 -19 -9 -19 -8 3 10 28 23 34 26 25 11z m50
-20 c-3 -5 -16 -15 -28 -21 -19 -9 -19 -8 3 10 28 23 34 26 25 11z m43 -23
c-29 -24 -98 -66 -86 -52 10 11 102 74 108 74 3 0 -7 -10 -22 -22z m-148 8 c0
-2 -10 -9 -22 -15 -22 -11 -22 -10 -4 4 21 17 26 19 26 11z m730 -239 c0 -3
-4 -8 -10 -11 -5 -3 -10 -1 -10 4 0 6 5 11 10 11 6 0 10 -2 10 -4z m1050 -106
c0 -5 -4 -10 -9 -10 -6 0 -13 5 -16 10 -3 6 1 10 9 10 9 0 16 -4 16 -10z"/>
<path d="M3038 5613 c7 -3 16 -2 19 1 4 3 -2 6 -13 5 -11 0 -14 -3 -6 -6z"/>
<path d="M2990 5600 c-13 -8 -12 -10 3 -10 9 0 17 5 17 10 0 12 -1 12 -20 0z"/>
<path d="M2934 5575 c-12 -8 -24 -12 -26 -9 -6 5 -38 -5 -553 -181 -187 -64
-387 -132 -445 -151 -58 -19 -112 -38 -120 -41 -14 -6 -271 -95 -432 -150 -43
-15 -78 -30 -78 -34 0 -3 17 -11 38 -16 20 -6 204 -59 407 -118 722 -209 705
-205 705 -186 0 5 9 7 20 4 12 -3 22 1 26 10 3 9 14 14 25 12 11 -2 17 0 14 5
-5 8 39 60 52 60 3 0 14 10 25 22 10 12 26 23 34 24 9 2 23 12 31 23 8 12 19
19 24 16 5 -4 9 -1 9 5 0 6 8 14 18 17 9 4 23 13 30 20 7 6 19 10 27 7 8 -4
18 1 21 10 3 9 13 16 22 16 8 0 24 8 35 18 11 9 17 12 14 5 -5 -8 -1 -8 18 0
14 7 25 19 25 27 1 12 3 11 11 -3 8 -14 13 -15 24 -5 36 33 45 38 45 28 0 -5
5 -10 11 -10 6 0 8 7 5 16 -6 15 -4 15 11 3 15 -12 16 -12 10 4 -7 18 7 24 18
7 10 -16 25 -12 26 8 0 10 3 12 6 5 7 -18 23 -16 23 1 0 8 -10 17 -22 19 -13
3 -7 4 12 2 47 -4 47 -4 30 -15 -9 -6 -10 -10 -3 -10 7 0 17 9 23 20 6 11 8
20 4 20 -3 0 -1 6 5 14 9 11 9 15 -1 19 -9 4 -7 6 4 6 9 1 19 5 22 10 4 5 -2
7 -13 4 -14 -3 -21 3 -29 26 -7 19 -7 31 -1 31 5 0 9 9 9 20 0 11 -5 20 -11
20 -6 0 -13 -9 -16 -20 -3 -11 -10 -20 -15 -20 -6 0 -5 -7 2 -15 9 -10 9 -15
1 -15 -6 0 -11 4 -11 10 0 5 -8 7 -17 3 -12 -4 -9 1 7 15 14 12 21 21 17 22
-4 0 -3 9 3 20 6 11 15 18 19 16 9 -6 8 31 -2 40 -21 21 10 29 40 11 6 -4 14
-3 17 2 4 5 -8 12 -25 16 -22 5 -28 10 -20 18 7 7 14 7 25 -2 10 -9 16 -9 21
-1 4 6 4 14 1 17 -3 4 -6 0 -6 -7 0 -9 -5 -8 -19 4 -15 13 -20 14 -24 4 -3 -7
-6 -3 -6 8 -1 34 -41 42 -41 8 0 -6 10 -14 22 -17 21 -6 21 -7 3 -27 -19 -21
-45 -27 -45 -10 0 6 7 10 15 10 8 0 15 5 15 11 0 5 -4 7 -10 4 -5 -3 -11 2
-11 12 -1 10 -3 28 -4 41 -2 16 2 22 12 18 8 -3 11 -1 8 4 -3 6 1 13 9 16 9 3
16 11 16 16 0 6 -7 8 -15 4 -10 -4 -15 1 -15 16 0 17 2 18 15 8 9 -7 19 -10
22 -6 4 4 1 11 -6 15 -8 5 -10 14 -6 21 6 9 3 9 -14 1 -11 -6 -26 -21 -32 -32
-6 -11 -13 -18 -16 -16 -2 3 1 15 7 27 10 18 9 21 -2 18 -7 -3 -13 -11 -13
-19 0 -8 -10 -15 -22 -17 -13 -2 -23 1 -23 7 0 6 8 7 17 4 12 -5 15 -2 10 10
-7 18 19 38 39 30 6 -2 16 3 23 10 9 12 5 13 -31 7 -36 -7 -40 -6 -25 5 9 6
17 15 17 19 0 12 -17 6 -40 -14 -27 -23 -44 -26 -37 -6 3 8 -2 17 -11 21 -15
5 -13 8 8 20 14 8 20 14 15 15 -6 0 -20 -7 -31 -15z m-21 -50 c-3 -13 -12 -30
-21 -37 -13 -12 -14 -10 -3 10 11 21 10 22 -26 23 l-38 1 45 12 c25 8 46 14
46 15 1 0 -1 -10 -3 -24z m-133 -15 c0 -5 -4 -10 -10 -10 -5 0 -10 5 -10 10 0
6 5 10 10 10 6 0 10 -4 10 -10z m186 -57 c-10 -10 -19 5 -10 18 6 11 8 11 12
0 2 -7 1 -15 -2 -18z m-26 4 c0 -2 -9 -12 -21 -23 -15 -14 -20 -15 -17 -4 2 8
10 18 18 22 19 8 20 9 20 5z m94 -31 c9 3 16 1 16 -6 0 -6 -5 -8 -12 -4 -9 5
-9 2 1 -9 11 -15 11 -17 -2 -17 -8 0 -20 7 -27 15 -7 8 -16 12 -21 9 -5 -3 -6
2 -3 11 5 11 10 13 19 5 7 -6 20 -8 29 -4z m-104 -20 c0 -3 -4 -8 -10 -11 -5
-3 -10 -1 -10 4 0 6 5 11 10 11 6 0 10 -2 10 -4z m65 -16 c-3 -5 -12 -10 -18
-10 -7 0 -6 4 3 10 19 12 23 12 15 0z m10 -20 c-3 -5 -15 -15 -25 -20 -16 -8
-18 -8 -14 4 3 8 13 17 22 19 10 3 18 5 20 6 2 0 0 -3 -3 -9z m45 -35 c0 -8
-4 -16 -9 -19 -5 -3 -8 5 -7 18 1 25 16 26 16 1z m-39 2 c-6 -8 -8 -17 -4 -21
4 -4 -1 -4 -11 0 -18 7 -18 8 0 21 23 17 30 17 15 0z m-18 -47 c3 -11 3 -20 1
-20 -2 0 -8 9 -14 20 -6 11 -7 20 -2 20 6 0 12 -9 15 -20z m105 -26 c-4 -21
-38 -33 -38 -14 0 7 7 10 18 6 16 -6 16 -5 0 8 -19 14 -25 32 -8 21 6 -3 10
-1 10 6 0 10 3 10 11 2 6 -6 9 -19 7 -29z m-77 -34 c5 0 8 -5 7 -12 -2 -7 2
-12 9 -13 18 0 25 -12 10 -18 -8 -3 -27 9 -43 26 -20 22 -23 29 -11 24 10 -4
23 -7 28 -7z m96 -119 c-9 -11 -9 -13 0 -8 8 5 11 0 10 -13 -2 -30 -14 -24
-22 10 -4 17 -12 30 -18 31 -7 0 -3 4 8 8 25 10 38 -8 22 -28z m-23 -14 c4
-17 3 -18 -13 -3 -10 9 -23 16 -29 16 -13 0 -16 13 -6 23 10 9 42 -15 48 -36z
m-624 -387 c0 -5 -5 -10 -11 -10 -5 0 -7 5 -4 10 3 6 8 10 11 10 2 0 4 -4 4
-10z"/>
<path d="M3037 5577 c2 -4 13 -5 23 -2 12 4 20 0 23 -12 4 -14 5 -13 6 4 1 19
-4 22 -28 20 -16 -1 -27 -6 -24 -10z"/>
<path d="M3220 5559 c0 -5 5 -7 10 -4 6 3 10 8 10 11 0 2 -4 4 -10 4 -5 0 -10
-5 -10 -11z"/>
<path d="M3095 5530 c-3 -5 -1 -10 4 -10 6 0 11 5 11 10 0 6 -2 10 -4 10 -3 0
-8 -4 -11 -10z"/>
<path d="M3190 5510 c0 -5 10 -10 23 -10 18 0 19 2 7 10 -19 13 -30 13 -30 0z"/>
<path d="M3140 5476 c0 -2 7 -7 16 -10 8 -3 12 -2 9 4 -6 10 -25 14 -25 6z"/>
<path d="M3135 5430 c-3 -5 1 -23 9 -40 8 -21 15 -28 18 -19 3 8 -1 22 -10 32
-8 9 -12 20 -7 25 4 4 10 2 12 -4 4 -12 43 -7 43 5 0 9 -60 10 -65 1z"/>
<path d="M3103 5422 c-7 -4 -9 -13 -4 -21 6 -9 10 -7 14 8 3 12 4 21 4 21 -1
0 -7 -4 -14 -8z"/>
<path d="M3121 5384 c0 -11 3 -14 6 -6 3 7 2 16 -1 19 -3 4 -6 -2 -5 -13z"/>
<path d="M3200 5280 c6 -11 13 -20 16 -20 2 0 0 9 -6 20 -6 11 -13 20 -16 20
-2 0 0 -9 6 -20z"/>
<path d="M3220 5296 c0 -2 7 -7 16 -10 8 -3 12 -2 9 4 -6 10 -25 14 -25 6z"/>
<path d="M3131 5254 c0 -11 3 -14 6 -6 3 7 2 16 -1 19 -3 4 -6 -2 -5 -13z"/>
<path d="M3160 5250 c0 -5 5 -10 10 -10 6 0 10 5 10 10 0 6 -4 10 -10 10 -5 0
-10 -4 -10 -10z"/>
<path d="M3205 5200 c3 -5 8 -10 11 -10 2 0 4 5 4 10 0 6 -5 10 -11 10 -5 0
-7 -4 -4 -10z"/>
<path d="M3148 5181 c-12 -4 -15 -10 -8 -21 7 -11 12 -12 21 -3 16 16 8 32
-13 24z"/>
<path d="M3167 5096 c-10 -8 -15 -16 -10 -19 4 -2 17 4 27 14 22 22 10 25 -17
5z"/>
<path d="M3255 5090 c3 -5 11 -10 16 -10 6 0 7 5 4 10 -3 6 -11 10 -16 10 -6
0 -7 -4 -4 -10z"/>
<path d="M1239 3648 c-1 -1503 0 -1720 4 -1724 1 -1 124 29 272 66 250 64 444
112 735 179 l115 27 -3 29 c-2 16 -12 36 -22 45 -11 10 -17 19 -14 22 3 3 -7
9 -23 12 -21 6 -24 9 -12 17 11 7 9 9 -8 9 -12 0 -25 5 -28 10 -3 5 3 10 15
10 12 0 18 5 15 10 -3 6 -15 10 -25 10 -10 0 -22 5 -26 12 -5 7 -2 9 8 6 9 -4
15 0 15 8 0 8 -4 15 -9 15 -4 1 -12 2 -17 3 -5 0 -13 5 -18 10 -4 5 -3 6 4 2
16 -9 24 7 12 24 -6 11 -9 12 -9 2 0 -9 -7 -8 -23 5 -15 11 -22 24 -19 35 3
12 -2 18 -14 19 -11 0 -14 3 -6 6 6 2 12 9 12 14 0 6 -4 8 -9 4 -5 -3 -12 -1
-16 5 -3 5 -1 10 4 10 6 0 11 5 11 12 0 6 -3 9 -6 5 -4 -3 -13 0 -20 8 -17 17
-18 28 -1 20 6 -4 -1 6 -18 20 -16 15 -24 24 -17 21 7 -5 12 -1 12 8 0 9 -7
16 -15 16 -8 0 -15 7 -15 15 0 7 -7 18 -16 23 -10 6 -13 12 -6 16 5 3 8 15 5
26 -4 16 -9 18 -24 9 -16 -8 -19 -6 -19 10 0 11 4 31 10 45 7 20 6 24 -6 19
-8 -3 -14 -2 -13 3 1 5 1 15 0 23 -1 11 -4 11 -18 0 -16 -12 -16 -11 0 8 11
13 14 23 8 27 -6 4 -8 13 -4 21 5 15 -12 21 -20 8 -2 -5 -3 -3 -1 3 1 6 -3 17
-9 23 -8 8 -8 11 0 11 12 0 7 61 -5 70 -4 3 -14 14 -22 25 -14 19 -14 19 3 6
15 -12 17 -11 17 3 0 9 -7 16 -16 16 -11 0 -14 6 -9 21 5 15 4 19 -5 14 -8 -5
-11 -1 -8 11 2 11 9 18 16 17 6 -2 9 4 6 12 -4 8 -14 15 -23 16 -11 0 -12 2
-3 6 10 4 10 10 -2 28 -12 18 -13 25 -3 29 9 5 9 7 -1 12 -10 5 -10 9 0 22 11
14 10 15 -6 9 -16 -6 -17 -5 -6 8 10 12 10 15 -1 15 -11 1 -10 3 2 13 18 14
14 37 -7 37 -8 0 -11 6 -7 16 3 8 12 13 19 10 8 -3 14 -1 14 4 0 6 -7 10 -15
10 -8 0 -15 7 -15 16 0 8 5 12 10 9 6 -3 10 1 10 9 0 8 -8 16 -17 19 -15 3
-14 5 5 13 l23 10 -26 14 c-18 9 -25 20 -22 32 3 10 1 18 -5 18 -5 0 -6 5 -3
10 3 6 0 10 -7 10 -10 0 -9 3 2 9 8 6 18 7 22 5 10 -7 15 9 22 68 3 29 1 50
-6 54 -7 5 -5 12 7 21 15 10 16 16 7 25 -20 20 -14 38 14 38 14 0 22 4 19 10
-7 11 -33 9 -54 -4 -8 -6 -7 1 4 18 18 27 45 35 45 14 0 -6 3 -8 7 -5 3 4 -4
17 -17 29 -14 13 -19 23 -12 26 7 2 12 10 12 19 0 10 6 12 23 8 22 -7 22 -7 2
8 -22 17 -29 71 -8 63 16 -7 17 6 2 21 -9 9 -6 10 11 6 19 -5 22 -3 17 11 -4
10 -1 19 8 22 20 8 19 29 -1 49 -9 9 -14 19 -11 22 3 3 13 -2 22 -11 9 -9 19
-16 22 -16 4 0 4 3 0 6 -3 3 -2 17 3 30 6 15 6 26 -1 30 -6 3 -3 11 8 20 14
11 15 13 3 14 -12 0 -11 3 3 11 15 9 46 57 48 76 3 22 13 33 28 33 13 0 13 2
2 9 -18 12 -5 32 17 24 14 -5 13 -2 -3 11 -20 17 -20 17 0 13 23 -5 44 12 37
31 -2 6 16 31 40 53 23 23 38 39 32 35 -7 -3 -14 1 -18 9 -4 10 1 15 14 15 11
0 20 5 20 11 0 5 5 7 10 4 6 -3 10 -1 10 4 0 6 -4 11 -9 11 -5 0 9 19 30 42
22 24 39 47 39 51 0 4 13 13 29 18 23 8 28 15 23 32 -5 20 -4 21 13 7 16 -13
18 -13 13 0 -3 9 -44 26 -104 43 -54 16 -128 37 -164 47 -306 87 -888 250
-893 250 -4 0 -7 -604 -8 -1342z m649 -4 c-3 -14 -5 -12 -10 9 -3 19 -2 25 4
19 6 -6 8 -18 6 -28z m-8 -274 c0 -5 -5 -10 -11 -10 -5 0 -7 5 -4 10 3 6 8 10
11 10 2 0 4 -4 4 -10z m39 -233 c-9 -7 -14 -19 -12 -27 4 -13 3 -13 -6 0 -11
16 3 40 23 40 6 0 4 -6 -5 -13z m11 -117 c0 -5 -5 -10 -11 -10 -5 0 -7 5 -4
10 3 6 8 10 11 10 2 0 4 -4 4 -10z m0 -900 c0 -5 -2 -10 -4 -10 -3 0 -8 5 -11
10 -3 6 -1 10 4 10 6 0 11 -4 11 -10z"/>
<path d="M3945 4934 c102 -94 211 -143 411 -184 107 -22 155 -23 147 -3 -3 7
2 13 11 13 9 0 16 -4 16 -9 0 -5 9 -11 21 -14 20 -5 20 -5 3 15 -26 27 -105
80 -112 73 -3 -3 0 -5 6 -5 6 0 10 -9 9 -20 -1 -13 -5 -16 -11 -10 -6 6 -30
10 -55 10 -59 0 -225 42 -282 70 -24 13 -78 45 -120 71 -42 27 -82 49 -90 49
-8 -1 13 -26 46 -56z m545 -179 c0 -5 -5 -3 -10 5 -5 8 -10 20 -10 25 0 6 5 3
10 -5 5 -8 10 -19 10 -25z"/>
<path d="M4000 4950 c77 -60 259 -130 338 -130 27 0 31 2 20 13 -33 32 -66 47
-104 47 -43 0 -111 21 -207 64 -68 31 -81 32 -47 6z"/>
<path d="M4086 4949 c6 -10 110 -49 132 -49 25 0 -35 30 -90 44 -26 7 -45 9
-42 5z"/>
<path d="M3050 4600 c0 -5 5 -10 11 -10 5 0 7 5 4 10 -3 6 -8 10 -11 10 -2 0
-4 -4 -4 -10z"/>
<path d="M3265 4600 c3 -5 8 -10 11 -10 2 0 4 5 4 10 0 6 -5 10 -11 10 -5 0
-7 -4 -4 -10z"/>
<path d="M3138 4589 c12 -16 7 -29 -10 -29 -5 0 -6 5 -3 11 4 6 -2 5 -14 -3
-25 -15 -28 -30 -4 -21 12 5 14 3 8 -8 -5 -8 3 -4 16 7 13 12 31 19 39 16 8
-2 13 -3 10 -1 -3 2 -16 13 -30 24 -15 12 -20 14 -12 4z"/>
<path d="M3033 4543 c4 -3 1 -13 -6 -22 -11 -14 -10 -14 6 -2 20 15 22 31 5
31 -6 0 -8 -3 -5 -7z"/>
<path d="M3147 4543 c-4 -3 -7 -18 -6 -32 1 -26 1 -25 10 3 9 31 7 41 -4 29z"/>
<path d="M3245 4520 c-3 -5 -1 -10 4 -10 6 0 11 5 11 10 0 6 -2 10 -4 10 -3 0
-8 -4 -11 -10z"/>
<path d="M3108 4513 c7 -3 16 -2 19 1 4 3 -2 6 -13 5 -11 0 -14 -3 -6 -6z"/>
<path d="M2906 4494 c-4 -12 -2 -15 9 -10 8 3 15 1 15 -3 0 -14 -27 -20 -37
-10 -7 7 -12 5 -17 -6 -3 -9 -2 -13 4 -10 6 3 10 1 10 -4 0 -6 -7 -11 -17 -11
-9 0 -14 -3 -10 -6 3 -3 -3 -14 -14 -25 -11 -11 -17 -25 -13 -32 4 -7 4 -9 -1
-5 -9 9 -150 -202 -202 -300 -59 -113 -42 -196 58 -286 181 -163 567 -239 837
-165 43 12 68 39 44 47 -7 2 -10 8 -7 13 4 5 0 7 -7 4 -60 -21 -241 -37 -358
-32 -271 12 -520 162 -519 312 0 56 35 134 118 259 50 76 80 130 75 137 -5 8
-3 10 6 4 10 -6 12 -4 7 9 -4 9 -3 14 2 11 11 -6 26 33 22 55 -2 8 1 12 5 7 9
-8 34 43 27 56 -7 13 -31 7 -37 -9z"/>
<path d="M3106 4486 c10 -8 21 -12 24 -10 5 6 -21 24 -34 24 -6 0 -1 -6 10
-14z"/>
<path d="M3271 4493 c0 -7 -7 -10 -15 -7 -14 6 -30 -22 -20 -37 3 -5 13 -9 22
-8 11 0 12 2 4 6 -6 2 -9 9 -6 14 3 6 11 6 20 -2 7 -6 11 -15 8 -20 -3 -5 0
-9 5 -9 6 0 11 9 11 20 0 11 -4 20 -9 20 -5 0 -12 8 -14 18 -3 9 -5 12 -6 5z"/>
<path d="M2820 4480 c20 -13 33 -13 25 0 -3 6 -14 10 -23 10 -15 0 -15 -2 -2
-10z"/>
<path d="M3150 4480 c-13 -8 -12 -10 3 -10 9 0 17 5 17 10 0 12 -1 12 -20 0z"/>
<path d="M3204 4475 c3 -22 13 -27 19 -11 3 8 0 17 -8 19 -7 3 -12 0 -11 -8z"/>
<path d="M3437 4479 c7 -7 15 -10 18 -7 3 3 -2 9 -12 12 -14 6 -15 5 -6 -5z"/>
<path d="M2939 4415 c-17 -33 -50 -89 -73 -125 -23 -36 -59 -91 -80 -122 -110
-171 -112 -245 -9 -338 66 -60 130 -93 238 -126 78 -23 109 -27 230 -28 141
-1 342 27 315 44 -9 5 -9 9 -1 14 6 4 11 16 11 28 0 14 -5 18 -16 14 -92 -35
-364 -47 -473 -20 -154 38 -271 137 -271 228 0 45 30 117 84 200 88 136 112
179 129 230 23 66 22 67 -18 64 -33 -2 -38 -7 -66 -63z"/>
<path d="M3075 4454 c-11 -8 -19 -17 -17 -19 4 -9 -49 -108 -102 -190 -75
-115 -113 -186 -121 -222 -20 -96 67 -189 224 -240 125 -40 461 -20 502 30 15
19 16 24 4 33 -8 6 -11 14 -7 19 4 4 -6 4 -23 1 -47 -10 -256 -24 -295 -19
-167 19 -262 94 -246 197 4 23 37 94 75 161 63 112 81 151 95 215 5 22 2 26
-21 28 -14 1 -31 6 -37 11 -7 6 -19 4 -31 -5z m72 -20 c-3 -3 -12 -4 -19 -1
-8 3 -5 6 6 6 11 1 17 -2 13 -5z"/>
<path d="M2786 4436 c-10 -15 -12 -27 -6 -31 15 -9 12 -19 -10 -32 -17 -11
-18 -10 -13 5 4 14 2 13 -10 -3 -9 -11 -17 -26 -17 -32 0 -7 -4 -13 -8 -13
-12 0 -42 -56 -34 -64 4 -4 2 -6 -5 -4 -18 5 -141 -187 -159 -249 -10 -35 -14
-70 -10 -98 27 -176 324 -344 701 -395 109 -15 275 -7 309 16 19 12 25 12 29
2 4 -8 6 -7 6 5 1 9 6 17 12 17 5 0 7 5 4 10 -4 6 -11 7 -17 4 -7 -5 -9 -1 -5
9 3 10 2 17 -3 17 -6 0 -10 -5 -10 -11 0 -5 -3 -8 -8 -5 -4 2 -30 0 -57 -5
-71 -13 -267 -13 -350 1 -207 35 -403 128 -489 233 -44 54 -56 86 -56 150 0
65 21 110 108 240 107 160 124 191 109 207 -10 10 -9 12 5 7 10 -3 20 -1 24 5
4 7 3 8 -4 4 -7 -4 -12 -2 -12 3 0 6 8 11 18 11 14 0 15 2 2 10 -22 14 -26 13
-44 -14z"/>
<path d="M3218 4422 c-10 -2 -18 -11 -18 -20 0 -12 -3 -13 -8 -5 -5 8 -12 -3
-19 -30 -7 -23 -37 -85 -68 -137 -62 -103 -95 -178 -95 -213 0 -41 36 -84 97
-113 53 -26 69 -29 178 -32 66 -1 156 3 200 10 77 13 80 14 82 42 1 16 4 35 7
42 3 9 0 11 -11 7 -11 -4 -14 -2 -9 5 5 9 -8 12 -48 12 -115 0 -196 32 -217
87 -9 23 5 102 31 173 17 48 23 93 11 86 -6 -4 -11 -2 -11 3 0 6 5 11 10 11 6
0 10 5 10 11 0 5 -4 8 -9 5 -5 -3 -14 1 -21 9 -10 12 -9 15 6 16 11 0 5 6 -16
13 -19 8 -39 11 -44 8 -4 -2 -11 0 -15 5 -3 5 -14 7 -23 5z"/>
<path d="M3430 4420 c0 -5 7 -7 15 -4 8 4 15 8 15 10 0 2 -7 4 -15 4 -8 0 -15
-4 -15 -10z"/>
<path d="M2696 4411 c-3 -5 1 -14 8 -20 18 -15 28 0 10 16 -7 7 -15 9 -18 4z"/>
<path d="M2680 4367 c0 -15 -5 -27 -11 -27 -5 0 -7 5 -4 10 3 6 4 10 2 10 -8
0 -160 -233 -191 -293 -76 -146 -31 -271 140 -393 141 -101 399 -196 634 -233
83 -14 270 -14 270 -1 0 5 6 7 14 4 17 -6 33 33 19 47 -6 6 -48 5 -106 -1
-201 -21 -457 31 -662 133 -185 92 -278 190 -292 306 -7 61 8 106 63 199 25
40 42 77 40 81 -3 5 1 17 10 27 14 18 15 18 4 -3 -15 -32 -8 -29 19 8 19 26
21 33 9 47 -11 15 -11 15 3 4 14 -10 20 -7 41 26 23 33 24 40 12 57 -13 18
-14 17 -14 -8z m-20 -57 c0 -5 -2 -10 -4 -10 -3 0 -8 5 -11 10 -3 6 -1 10 4
10 6 0 11 -4 11 -10z m-90 -140 c0 -5 -2 -10 -4 -10 -3 0 -8 5 -11 10 -3 6 -1
10 4 10 6 0 11 -4 11 -10z"/>
<path d="M3380 4360 c-6 -4 -8 -15 -4 -25 5 -13 4 -16 -4 -11 -7 4 -12 1 -12
-7 0 -8 -13 -58 -30 -111 -33 -107 -30 -132 15 -162 34 -22 187 -43 193 -26 2
7 8 10 13 6 9 -5 10 -1 13 51 0 17 4 35 8 41 4 7 1 17 -7 24 -16 13 -21 45 -6
36 5 -3 11 3 14 14 3 12 1 18 -5 14 -5 -3 -9 2 -8 12 4 38 0 50 -20 50 -11 0
-20 -4 -20 -8 0 -4 -6 -8 -12 -8 -7 1 -1 11 15 23 l27 23 -29 -1 c-16 0 -27
-3 -24 -7 2 -5 -1 -8 -8 -8 -6 0 -9 8 -6 19 3 14 0 17 -13 14 -10 -3 -17 1
-17 11 0 9 4 16 9 16 4 0 8 5 8 10 0 6 -11 8 -25 6 -14 -3 -25 -1 -25 3 0 9
-25 10 -40 1z"/>
<path d="M3480 4346 c0 -2 7 -9 15 -16 13 -11 14 -10 9 4 -5 14 -24 23 -24 12z"/>
<path d="M2105 4250 c-3 -5 -1 -10 4 -10 6 0 11 5 11 10 0 6 -2 10 -4 10 -3 0
-8 -4 -11 -10z"/>
<path d="M2540 4230 c0 -5 -6 -10 -14 -10 -22 0 -49 -42 -33 -52 12 -8 10 -9
-15 -12 -7 0 -14 -8 -14 -16 -1 -8 -2 -22 -3 -30 -1 -12 -3 -12 -10 -2 -7 11
-9 11 -14 -2 -4 -9 -1 -16 6 -17 7 0 3 -4 -9 -9 -26 -10 -54 -95 -54 -164 0
-174 213 -341 602 -470 213 -71 492 -122 523 -96 8 7 19 9 24 6 6 -4 19 1 30
10 15 13 16 20 8 29 -7 7 -16 10 -21 7 -5 -3 -54 -4 -110 -4 -294 5 -693 140
-881 300 -89 75 -126 140 -132 230 -4 63 -2 72 38 152 23 47 41 93 40 103 -1
10 8 21 23 27 22 8 37 30 21 30 -3 0 -5 -4 -5 -10z"/>
<path d="M2463 4216 c0 -15 -43 -86 -52 -86 -4 0 -8 -7 -8 -15 0 -8 1 -15 3
-15 1 0 17 24 36 53 18 28 36 57 40 63 4 6 1 11 -6 11 -7 0 -13 -5 -13 -11z"/>
<path d="M2367 4052 c1 -3 -4 -13 -12 -22 -27 -30 -37 -117 -20 -183 40 -156
208 -287 532 -416 200 -79 496 -159 619 -168 l82 -6 -5 27 c-3 14 -10 26 -15
26 -5 0 -6 -5 -2 -11 4 -7 -1 -7 -16 1 -12 6 -42 10 -66 8 -24 -2 -44 1 -44 5
0 5 -18 7 -39 5 -22 -2 -38 0 -35 3 8 14 -78 20 -94 7 -13 -11 -15 -10 -9 5 4
11 2 17 -7 17 -29 0 -266 74 -372 116 -265 104 -447 239 -489 362 -17 52 -20
148 -5 188 6 16 7 30 2 34 -5 4 -7 5 -5 2z m-20 -84 c-3 -8 -6 -5 -6 6 -1 11
2 17 5 13 3 -3 4 -12 1 -19z"/>
<path d="M2299 4008 c-2 -8 -8 -62 -13 -121 -5 -51 -3 -66 5 -61 8 4 9 3 5 -5
-10 -16 3 -53 16 -45 7 4 8 2 4 -5 -9 -15 21 -64 34 -56 6 3 7 0 4 -8 -7 -20
109 -123 205 -181 163 -98 608 -271 674 -261 25 4 28 3 12 -4 -11 -5 -18 -10
-15 -10 3 -1 67 -17 143 -36 121 -30 199 -44 160 -28 -7 2 -13 13 -13 23 0 14
-11 20 -52 25 -29 4 -81 13 -116 21 -35 8 -67 12 -72 9 -6 -4 -10 -2 -10 3 0
15 -54 22 -62 9 -5 -8 -8 -6 -8 4 0 17 -44 34 -60 24 -6 -4 -10 -2 -10 3 0 13
-78 34 -93 26 -6 -4 -8 -3 -4 1 4 5 -45 28 -110 52 -310 115 -515 252 -590
395 -24 46 -28 65 -28 141 0 74 -2 97 -6 85z m1049 -761 c6 0 12 -5 12 -10 0
-5 -10 -6 -22 -2 -13 3 -29 7 -35 7 -7 1 -13 5 -13 10 0 5 10 6 23 2 12 -4 28
-7 35 -7z m102 -27 c0 -5 -5 -10 -11 -10 -5 0 -7 5 -4 10 3 6 8 10 11 10 2 0
4 -4 4 -10z"/>
<path d="M1947 3917 c-3 -7 3 -13 13 -13 10 0 16 6 13 13 -3 7 -9 13 -13 13
-4 0 -10 -6 -13 -13z"/>
<path d="M2244 3835 c-4 -10 -1 -20 6 -25 7 -4 9 -13 6 -19 -4 -6 -3 -19 3
-28 7 -13 9 -5 5 31 -5 55 -10 67 -20 41z"/>
<path d="M2277 3746 c-9 -22 71 -124 134 -172 107 -82 312 -194 327 -179 3 2
10 -1 16 -9 16 -20 265 -118 283 -112 9 4 11 2 7 -5 -4 -7 -1 -10 7 -7 8 3 20
-1 27 -8 17 -18 89 -37 104 -28 6 4 8 3 5 -3 -3 -5 41 -25 100 -44 78 -25 107
-31 110 -21 3 6 12 12 21 13 10 0 -23 11 -73 25 -118 32 -288 88 -398 131 -48
19 -92 31 -99 27 -6 -4 -8 -3 -5 3 3 5 -31 24 -76 42 -163 66 -371 203 -426
280 -13 17 -27 28 -33 24 -7 -4 -9 -1 -6 8 3 8 0 23 -7 32 -11 15 -13 15 -18
3z m1013 -546 c8 -5 11 -10 5 -10 -5 0 -17 5 -25 10 -8 5 -10 10 -5 10 6 0 17
-5 25 -10z"/>
<path d="M2255 3690 c-8 -14 68 -106 85 -102 6 1 9 -2 5 -7 -9 -15 104 -96
116 -84 7 7 0 17 -23 31 -18 11 -53 41 -77 66 -24 25 -49 42 -54 39 -6 -3 -8
-2 -4 3 3 5 -5 22 -18 38 -15 19 -25 24 -30 16z m26 -27 c13 -16 12 -17 -3 -4
-10 7 -18 15 -18 17 0 8 8 3 21 -13z"/>
<path d="M2216 3658 c3 -5 10 -6 15 -3 13 9 11 12 -6 12 -8 0 -12 -4 -9 -9z"/>
<path d="M2230 3635 c0 -2 6 -8 13 -14 10 -8 14 -7 14 2 0 8 -6 14 -14 14 -7
0 -13 -1 -13 -2z"/>
<path d="M2277 3593 c-10 -16 83 -96 187 -160 133 -82 477 -240 496 -228 6 3
10 2 10 -3 0 -14 108 -52 127 -45 10 4 14 2 10 -4 -8 -13 214 -95 260 -96 17
-1 30 -4 28 -8 -3 -3 26 -14 63 -24 37 -9 75 -19 86 -22 11 -3 16 -1 12 5 -3
6 0 13 6 16 7 3 -3 3 -22 0 -19 -3 -46 -1 -60 5 l-25 10 25 1 c14 1 -6 10 -45
20 -38 11 -81 17 -95 14 -19 -4 -21 -3 -11 4 11 8 5 13 -28 22 -23 6 -47 8
-53 4 -7 -4 -8 -3 -4 4 4 7 2 12 -4 12 -17 0 -258 91 -424 161 -145 60 -293
135 -374 190 -24 16 -48 26 -54 23 -6 -4 -8 -2 -5 3 4 6 0 16 -8 23 -8 7 -15
10 -15 7 0 -4 -17 12 -38 35 -23 24 -42 37 -45 31z"/>
<path d="M5241 3574 c0 -11 3 -14 6 -6 3 7 2 16 -1 19 -3 4 -6 -2 -5 -13z"/>
<path d="M2256 3551 c-4 -5 21 -33 54 -60 59 -49 100 -77 100 -67 0 3 11 -5
24 -17 36 -33 471 -241 486 -232 4 3 10 1 12 -4 9 -24 518 -207 546 -196 28
11 -5 28 -53 28 -25 0 -41 3 -34 7 6 5 0 10 -16 14 -14 4 -31 4 -37 0 -7 -5
-8 -2 -3 6 6 9 2 10 -15 5 -17 -5 -21 -4 -15 6 6 9 2 11 -13 7 -14 -4 -20 -2
-16 4 4 6 -2 8 -16 3 -17 -5 -21 -4 -15 6 6 9 3 11 -8 6 -10 -3 -17 -3 -17 1
0 10 -90 43 -100 37 -5 -3 -10 -1 -12 3 -1 5 -46 26 -98 47 -52 21 -108 44
-125 51 -16 7 -59 25 -95 39 -109 45 -301 145 -386 201 -44 30 -86 54 -93 54
-7 0 -10 4 -7 9 3 4 -5 18 -18 30 -14 14 -26 18 -30 12z m25 -18 c13 -16 12
-17 -3 -4 -10 7 -18 15 -18 17 0 8 8 3 21 -13z m1196 -549 c-3 -3 -12 -4 -19
-1 -8 3 -5 6 6 6 11 1 17 -2 13 -5z"/>
<path d="M1890 3540 c-13 -9 -13 -11 0 -20 15 -10 25 0 18 20 -2 6 -8 6 -18 0z"/>
<path d="M1880 3502 c0 -12 19 -26 26 -19 2 2 -2 10 -11 17 -9 8 -15 8 -15 2z"/>
<path d="M2466 3491 c-3 -5 0 -13 7 -18 24 -19 159 -86 173 -86 8 0 14 -4 14
-8 0 -24 565 -242 751 -289 90 -23 92 -24 83 -9 -4 8 1 9 17 5 21 -6 21 -5 6
4 -9 6 -27 8 -38 5 -13 -5 -19 -3 -15 3 3 5 -10 13 -29 16 -20 4 -92 25 -161
47 -68 22 -130 37 -136 33 -6 -4 -8 -3 -5 3 8 13 -89 47 -106 37 -7 -4 -9 -4
-5 1 9 9 -252 116 -264 109 -4 -3 -8 -1 -8 4 0 12 -49 34 -61 27 -5 -4 -9 -1
-9 4 0 6 -28 25 -62 42 -34 17 -79 42 -100 55 -42 27 -45 28 -52 15z"/>
<path d="M2290 3455 c13 -14 27 -22 31 -19 5 3 9 1 9 -5 0 -19 270 -173 270
-154 0 5 4 3 8 -3 9 -14 94 -55 100 -49 7 7 14 3 -150 88 -81 42 -174 95 -205
119 -65 48 -97 60 -63 23z m21 -2 c13 -16 12 -17 -3 -4 -17 13 -22 21 -14 21
2 0 10 -8 17 -17z"/>
<path d="M2261 3443 c7 -12 15 -20 18 -17 3 2 -3 12 -13 22 -17 16 -18 16 -5
-5z"/>
<path d="M2341 3381 c3 -7 9 -13 14 -13 6 -1 15 -7 20 -14 12 -15 327 -175
333 -169 2 2 -51 32 -119 66 -68 34 -146 76 -174 93 -78 50 -78 50 -74 37z"/>
<path d="M5231 3374 c0 -11 3 -14 6 -6 3 7 2 16 -1 19 -3 4 -6 -2 -5 -13z"/>
<path d="M2320 3345 c7 -8 17 -15 22 -15 6 0 23 -9 39 -21 16 -11 29 -17 29
-12 0 8 -85 63 -97 63 -3 0 0 -7 7 -15z"/>
<path d="M2270 3341 c0 -5 7 -12 16 -15 14 -5 15 -4 4 9 -14 17 -20 19 -20 6z"/>
<path d="M2390 3264 c30 -19 147 -80 260 -136 365 -179 654 -325 695 -350 22
-13 54 -32 71 -43 17 -10 36 -32 42 -49 10 -25 9 -35 -8 -64 -11 -18 -16 -30
-10 -27 15 9 12 -4 -4 -21 -18 -17 -40 -19 -30 -1 5 8 3 8 -9 -2 -25 -20 -11
-31 25 -21 17 5 34 7 39 5 12 -8 39 6 32 18 -4 7 0 8 12 3 15 -5 16 -4 5 9
-13 15 -8 19 21 16 9 -1 19 6 23 16 3 10 9 24 12 31 4 8 0 10 -13 5 -17 -6
-17 -6 -1 10 20 21 14 44 -14 53 -11 3 -17 8 -14 12 3 3 -2 11 -12 18 -17 11
-428 198 -582 264 -160 68 -469 220 -541 265 -21 14 -42 25 -46 25 -5 0 17
-16 47 -36z"/>
<path d="M2420 3291 c0 -8 50 -34 56 -29 1 2 -11 11 -27 20 -16 9 -29 14 -29
9z"/>
<path d="M2330 3265 c0 -7 178 -104 410 -222 352 -180 503 -270 549 -328 10
-14 20 -22 23 -20 2 3 3 -12 1 -32 -1 -23 -12 -46 -27 -61 -22 -22 -22 -26 -8
-43 15 -17 17 -17 64 7 27 14 46 29 43 34 -3 5 0 7 8 4 26 -10 40 32 29 89 -1
4 -37 30 -79 58 -70 46 -211 118 -653 332 -74 36 -186 93 -247 126 -62 33
-113 58 -113 56z"/>
<path d="M2720 3222 c0 -10 105 -60 280 -132 168 -70 230 -91 244 -83 6 3 8 2
3 -2 -9 -11 83 -47 101 -40 7 3 11 1 8 -4 -8 -12 79 -35 95 -26 8 5 10 4 5 -3
-4 -7 -2 -12 3 -12 6 0 11 6 11 13 0 15 -165 68 -187 60 -10 -4 -14 -2 -10 4
8 12 -80 46 -94 37 -5 -3 -9 -1 -9 4 0 5 -21 17 -47 27 -27 10 -106 41 -178
71 -71 29 -137 54 -145 56 -8 2 -21 9 -28 16 -8 7 -18 10 -23 7 -5 -4 -9 -1
-9 4 0 6 -4 11 -10 11 -5 0 -10 -4 -10 -8z"/>
<path d="M2360 3215 c0 -8 71 -50 205 -120 332 -174 519 -288 580 -356 46 -51
47 -94 5 -142 -16 -19 -26 -37 -23 -41 4 -4 -1 -4 -10 0 -13 5 -20 1 -24 -14
-3 -11 -10 -19 -17 -16 -6 2 -20 -2 -31 -10 -13 -10 -15 -15 -6 -16 8 0 4 -8
-10 -21 l-24 -20 32 17 c19 11 28 21 22 25 -8 4 -7 9 2 15 7 4 14 3 16 -3 5
-13 129 49 170 85 16 13 21 21 13 17 -9 -4 -8 0 3 8 26 22 16 75 -21 108 -53
48 -206 135 -492 281 -157 80 -309 159 -337 176 -29 17 -53 29 -53 27z"/>
<path d="M2577 3209 c7 -7 15 -10 18 -7 3 3 -2 9 -12 12 -14 6 -15 5 -6 -5z"/>
<path d="M3550 3199 c0 -5 5 -7 10 -4 6 3 10 8 10 11 0 2 -4 4 -10 4 -5 0 -10
-5 -10 -11z"/>
<path d="M5197 3203 c-10 -9 -9 -23 1 -23 5 0 9 7 9 15 0 17 -1 18 -10 8z"/>
<path d="M2610 3196 c0 -2 7 -9 15 -16 9 -7 15 -8 15 -2 0 5 -7 12 -15 16 -8
3 -15 4 -15 2z"/>
<path d="M2650 3176 c0 -2 7 -9 15 -16 9 -7 15 -8 15 -2 0 5 -7 12 -15 16 -8
3 -15 4 -15 2z"/>
<path d="M2785 3145 c206 -106 745 -319 745 -295 0 6 10 10 23 11 18 1 17 2
-7 9 -16 5 -33 7 -37 5 -4 -3 -9 -1 -11 3 -4 12 -249 93 -259 86 -5 -3 -9 0
-9 6 0 7 -7 9 -17 6 -10 -4 -14 -4 -10 0 6 6 -420 189 -468 200 -11 3 12 -12
50 -31z"/>
<path d="M3428 3163 c-35 -9 -17 -22 54 -38 48 -11 74 -13 81 -6 7 7 3 9 -14
6 -22 -4 -23 -3 -6 9 16 13 13 15 -33 25 -53 11 -54 12 -82 4z m98 -20 c-10
-10 -44 -14 -50 -5 -2 4 10 8 26 9 17 1 28 -1 24 -4z"/>
<path d="M2720 3136 c0 -2 7 -7 16 -10 8 -3 12 -2 9 4 -6 10 -25 14 -25 6z"/>
<path d="M2390 3126 c0 -3 14 -12 30 -21 17 -9 30 -13 30 -11 0 3 -13 12 -30
21 -16 9 -30 13 -30 11z"/>
<path d="M2470 3116 c0 -3 14 -12 30 -21 17 -9 30 -13 30 -11 0 3 -13 12 -30
21 -16 9 -30 13 -30 11z"/>
<path d="M2800 3100 c0 -5 1 -10 3 -10 1 0 72 -32 157 -71 85 -39 163 -71 173
-72 9 -1 17 -4 17 -8 0 -11 81 -40 92 -33 6 4 8 2 4 -4 -8 -13 29 -26 45 -16
7 4 9 3 6 -3 -4 -5 49 -34 118 -65 114 -51 125 -54 130 -37 4 11 11 16 17 13
7 -5 8 -2 4 5 -5 7 -14 10 -22 7 -8 -3 -14 -2 -14 3 0 5 -48 25 -107 46 -87
31 -306 120 -590 241 -20 9 -33 10 -33 4z"/>
<path d="M2400 3086 c0 -3 9 -10 20 -16 11 -6 20 -8 20 -6 0 3 -9 10 -20 16
-11 6 -20 8 -20 6z"/>
<path d="M2460 3087 c0 -3 48 -33 108 -68 156 -91 272 -171 331 -228 76 -74
89 -125 49 -190 -13 -20 -23 -39 -23 -43 0 -5 -4 -8 -8 -7 -16 2 -67 -54 -65
-70 2 -9 -3 -15 -10 -13 -8 1 -11 -2 -7 -8 5 -8 11 -8 21 1 7 6 12 15 9 19 -2
4 5 16 16 26 19 17 20 17 13 -1 -10 -25 104 67 128 104 28 41 23 90 -12 133
-31 38 -214 167 -277 196 -21 10 -72 37 -113 61 -141 82 -160 93 -160 88z"/>
<path d="M5181 3083 c0 -6 -4 -20 -7 -30 -5 -14 -4 -15 5 -7 7 7 11 20 8 30
-3 11 -5 14 -6 7z"/>
<path d="M2540 3075 c0 -7 61 -37 66 -33 2 3 -12 12 -31 21 -19 9 -35 15 -35
12z"/>
<path d="M3518 3063 c7 -3 16 -2 19 1 4 3 -2 6 -13 5 -11 0 -14 -3 -6 -6z"/>
<path d="M5133 3051 c2 -10 0 -25 -4 -34 -6 -10 -5 -18 1 -22 5 -3 10 2 11 12
0 10 2 28 5 41 2 12 -1 22 -7 22 -6 0 -9 -8 -6 -19z"/>
<path d="M2450 3056 c0 -3 9 -10 20 -16 11 -6 20 -8 20 -6 0 3 -9 10 -20 16
-11 6 -20 8 -20 6z"/>
<path d="M2377 3029 c7 -7 15 -10 18 -7 3 3 -2 9 -12 12 -14 6 -15 5 -6 -5z"/>
<path d="M2620 3036 c0 -8 90 -59 96 -54 2 3 -18 17 -46 32 -27 15 -50 25 -50
22z"/>
<path d="M2501 3026 c13 -14 149 -95 149 -88 0 8 -13 17 -95 62 -33 19 -57 30
-54 26z"/>
<path d="M2490 2996 c0 -3 9 -10 20 -16 11 -6 20 -8 20 -6 0 3 -9 10 -20 16
-11 6 -20 8 -20 6z"/>
<path d="M2475 2966 c17 -14 35 -25 40 -25 11 0 -20 25 -50 41 -11 5 -6 -2 10
-16z"/>
<path d="M3509 2982 c11 -8 10 -11 -5 -16 -11 -3 -7 -4 8 -2 15 2 29 -2 32 -8
2 -6 5 -3 5 7 1 9 -3 17 -8 17 -5 0 -18 3 -28 6 -14 5 -15 4 -4 -4z"/>
<path d="M2410 2976 c0 -2 27 -23 61 -47 94 -68 156 -138 190 -214 22 -50 21
-74 -12 -162 -24 -68 -3 -62 36 9 39 71 39 121 -1 184 -17 27 -36 48 -43 46
-7 -1 -10 2 -7 6 7 12 -28 44 -37 35 -4 -3 -7 -1 -7 6 0 7 -12 22 -26 33 -41
32 -154 109 -154 104z"/>
<path d="M2735 2970 c12 -20 147 -100 157 -94 6 4 8 3 5 -3 -4 -6 18 -27 49
-48 72 -50 115 -105 121 -156 6 -41 5 -42 -76 -119 -60 -56 -79 -80 -69 -85 7
-5 10 -5 6 0 -9 9 9 35 24 35 6 0 5 -6 -2 -15 -6 -8 28 12 77 44 48 32 95 67
104 77 20 24 31 54 20 54 -5 0 -7 8 -4 18 3 11 -7 32 -23 51 -46 55 -322 230
-337 214 -4 -3 -7 -2 -7 4 0 5 -12 15 -26 21 -14 7 -23 8 -19 2z"/>
<path d="M5115 2970 c3 -5 8 -10 11 -10 2 0 4 5 4 10 0 6 -5 10 -11 10 -5 0
-7 -4 -4 -10z"/>
<path d="M2570 2947 c0 -2 21 -21 47 -41 26 -20 68 -56 92 -79 25 -23 49 -41
53 -39 4 1 7 -1 6 -5 -1 -5 8 -27 20 -50 28 -55 28 -89 -3 -147 -14 -26 -23
-51 -20 -56 3 -5 -2 -13 -11 -18 -11 -6 -13 -12 -6 -16 16 -10 100 108 108
152 5 27 2 46 -16 80 -26 49 -107 125 -123 115 -5 -3 -7 -2 -4 3 5 9 -60 61
-72 57 -3 -1 -15 6 -26 16 -23 20 -45 34 -45 28z"/>
<path d="M5047 2923 c-3 -15 -1 -32 4 -38 7 -7 8 -3 3 9 -5 13 -4 17 4 12 14
-8 16 13 3 32 -6 10 -10 6 -14 -15z"/>
<path d="M2536 2928 c3 -7 37 -39 75 -71 77 -64 129 -143 129 -195 0 -18 -7
-49 -16 -70 -9 -20 -16 -48 -15 -62 0 -17 -2 -21 -8 -12 -7 11 -9 11 -14 0 -3
-9 1 -15 9 -15 19 0 78 93 68 108 -4 7 -3 9 3 6 21 -13 24 54 4 98 -20 45
-118 148 -133 139 -4 -3 -11 1 -14 9 -3 8 -25 29 -49 46 -25 18 -42 26 -39 19z"/>
<path d="M3480 2926 c0 -14 48 -32 58 -21 3 3 -2 5 -11 5 -9 0 -18 4 -21 9 -3
4 7 7 22 5 l27 -4 -25 9 c-37 13 -50 13 -50 -3z"/>
<path d="M2680 2909 c149 -121 160 -131 185 -183 24 -50 26 -59 15 -91 -7 -20
-35 -67 -62 -103 -28 -37 -43 -61 -34 -53 13 11 16 11 16 0 0 -11 2 -11 9 1 6
8 8 17 5 21 -2 4 6 9 17 12 13 4 18 10 13 18 -4 7 -3 10 3 6 11 -7 74 55 92
91 21 41 3 92 -53 147 -64 64 -143 118 -158 109 -7 -4 -8 -3 -4 4 7 12 -27 35
-38 25 -3 -3 -6 -1 -6 5 0 7 -6 12 -12 12 -7 -1 -2 -10 12 -21z"/>
<path d="M2440 2917 c0 -2 14 -16 30 -32 17 -16 30 -24 30 -19 0 6 -13 20 -30
32 -16 13 -30 21 -30 19z"/>
<path d="M2440 2877 c0 -12 83 -101 96 -103 8 -1 14 -1 14 -1 0 1 -25 26 -55
56 -30 30 -55 51 -55 48z"/>
<path d="M2400 2860 c0 -5 5 -10 11 -10 5 0 7 5 4 10 -3 6 -8 10 -11 10 -2 0
-4 -4 -4 -10z"/>
<path d="M2517 2852 c-8 -12 47 -64 58 -55 4 5 5 3 1 -4 -4 -7 0 -23 8 -35 32
-51 39 -99 22 -168 -10 -46 -12 -68 -4 -75 8 -7 9 -6 4 3 -4 6 -3 12 2 12 14
0 42 87 42 129 0 19 -9 53 -20 76 -22 46 -105 132 -113 117z m28 -22 c10 -11
16 -20 13 -20 -3 0 -13 9 -23 20 -10 11 -16 20 -13 20 3 0 13 -9 23 -20z"/>
<path d="M2420 2836 c0 -2 8 -10 18 -17 15 -13 16 -12 3 4 -13 16 -21 21 -21
13z"/>
<path d="M3674 2818 c1 -16 16 -27 69 -49 77 -31 107 -53 107 -80 0 -24 -63
-84 -122 -116 -30 -17 -48 -33 -48 -45 0 -10 5 -18 11 -18 5 0 7 5 3 12 -4 7
-3 8 4 4 31 -19 217 71 291 140 46 43 53 54 48 76 -9 36 -59 53 -224 78 -72
11 -134 20 -136 20 -2 0 -4 -10 -3 -22z"/>
<path d="M4955 2809 c-5 -13 -19 -41 -32 -63 -14 -21 -20 -35 -14 -31 6 3 18
20 26 36 9 17 21 27 27 23 7 -5 8 -3 4 5 -5 7 0 18 10 26 11 7 16 17 11 21 -4
4 -7 1 -7 -7 0 -12 -2 -12 -9 0 -7 11 -11 8 -16 -10z"/>
<path d="M5017 2813 c3 -7 6 -13 8 -13 2 0 5 6 8 13 3 8 -1 14 -8 14 -7 0 -11
-6 -8 -14z"/>
<path d="M2464 2793 c2 -9 8 -19 14 -21 7 -2 10 -7 8 -11 -3 -4 1 -8 9 -8 11
0 9 7 -6 29 -23 32 -28 35 -25 11z"/>
<path d="M2430 2774 c1 -21 27 -56 34 -45 4 6 2 11 -4 11 -6 0 -9 4 -6 9 3 5
-1 14 -9 21 -8 7 -15 9 -15 4z"/>
<path d="M3675 2749 c2 -10 0 -21 -5 -24 -4 -3 -4 -21 0 -41 5 -20 6 -43 3
-50 -3 -8 -2 -25 1 -39 6 -22 9 -23 34 -14 68 26 119 86 101 120 -9 17 -61 45
-109 59 -25 7 -28 6 -25 -11z"/>
<path d="M2546 2733 c5 -16 9 -65 9 -109 0 -64 3 -80 13 -76 8 2 11 13 9 23
-3 11 -1 22 4 25 15 9 10 102 -6 134 -20 39 -40 40 -29 3z"/>
<path d="M2500 2720 c6 -11 15 -20 20 -20 21 0 5 33 -18 38 -10 2 -10 -2 -2
-18z"/>
<path d="M2466 2711 c-4 -7 -5 -15 -2 -18 9 -9 19 4 14 18 -4 11 -6 11 -12 0z"/>
<path d="M2511 2674 c0 -11 3 -14 6 -6 3 7 2 16 -1 19 -3 4 -6 -2 -5 -13z"/>
<path d="M2527 2664 c-2 -15 -1 -38 3 -53 7 -21 8 -16 9 27 1 56 -4 67 -12 26z"/>
<path d="M4866 2655 c-15 -19 -24 -40 -21 -45 3 -6 -1 -10 -9 -10 -8 0 -31
-20 -51 -44 -44 -55 -153 -146 -245 -207 -39 -25 -67 -49 -63 -52 3 -4 -3 -7
-15 -7 -13 0 -71 -25 -131 -55 -60 -30 -174 -82 -253 -115 -152 -65 -273 -128
-264 -137 3 -4 0 -13 -7 -21 -9 -11 -5 -11 15 2 15 10 25 23 21 29 -3 6 -1 7
5 3 6 -4 43 9 82 29 39 20 144 67 233 106 256 111 540 279 522 309 -3 6 0 7 7
5 14 -6 71 46 69 62 -1 4 3 8 8 8 11 0 26 13 27 26 1 5 2 14 3 19 0 6 5 10 11
10 15 0 50 33 44 42 -3 4 0 8 6 8 6 0 8 5 5 10 -3 6 1 10 9 10 18 0 40 36 27
44 -5 3 -21 -10 -35 -29z m-126 -169 c0 -2 -8 -10 -17 -17 -16 -13 -17 -12 -4
4 13 16 21 21 21 13z"/>
<path d="M2470 2645 c0 -14 3 -25 8 -25 4 0 7 11 7 25 0 14 -3 25 -7 25 -5 0
-8 -11 -8 -25z"/>
<path d="M4900 2615 c0 -8 2 -15 4 -15 2 0 6 7 10 15 3 8 1 15 -4 15 -6 0 -10
-7 -10 -15z"/>
<path d="M2517 2573 c-10 -9 -9 -23 1 -23 5 0 9 7 9 15 0 17 -1 18 -10 8z"/>
<path d="M3233 2546 c2 -6 -3 -16 -12 -23 -13 -10 -8 -10 22 -1 40 12 45 30 9
33 -13 1 -21 -3 -19 -9z"/>
<path d="M3537 2541 c3 -12 9 -21 14 -21 14 0 11 16 -5 29 -12 10 -13 8 -9 -8z"/>
<path d="M3168 2508 c5 -5 16 -8 23 -6 8 3 3 7 -10 11 -17 4 -21 3 -13 -5z"/>
<path d="M3275 2510 c-16 -7 -17 -9 -3 -9 9 -1 20 4 23 9 7 11 7 11 -20 0z"/>
<path d="M3140 2500 c0 -6 -6 -8 -12 -4 -10 6 -10 4 0 -7 9 -9 15 -10 23 -2 8
8 8 13 0 17 -6 4 -11 2 -11 -4z"/>
<path d="M3421 2494 c0 -11 3 -14 6 -6 3 7 2 16 -1 19 -3 4 -6 -2 -5 -13z"/>
<path d="M2620 2470 c0 -19 3 -21 12 -12 9 9 9 15 0 24 -9 9 -12 7 -12 -12z"/>
<path d="M2666 2475 c-3 -8 0 -17 6 -21 6 -4 8 -3 4 4 -3 5 -1 12 6 14 8 3 9
6 1 11 -6 4 -13 0 -17 -8z"/>
<path d="M2724 2469 c0 -13 3 -15 13 -7 7 6 13 12 13 13 0 2 -6 5 -13 8 -7 3
-13 -3 -13 -14z"/>
<path d="M4638 2362 c-7 -11 -20 -22 -28 -25 -11 -5 -10 -6 4 -4 10 1 25 12
34 25 17 26 9 30 -10 4z"/>
<path d="M4554 2306 c-10 -8 -16 -17 -13 -20 3 -3 14 1 25 8 10 8 16 17 13 20
-3 3 -14 -1 -25 -8z"/>
<path d="M4310 2271 c-42 -22 -163 -76 -270 -122 -170 -72 -310 -147 -310
-166 0 -3 7 0 15 7 18 15 20 -1 3 -19 -7 -8 11 4 40 24 30 21 144 77 255 125
246 106 378 170 371 182 -9 14 -26 9 -104 -31z"/>
<path d="M4855 2280 c3 -5 8 -10 11 -10 2 0 4 5 4 10 0 6 -5 10 -11 10 -5 0
-7 -4 -4 -10z"/>
<path d="M4440 2243 c-53 -29 -186 -91 -305 -143 -188 -81 -279 -130 -256
-138 8 -3 18 3 23 12 5 9 13 14 18 11 4 -3 39 10 76 29 38 18 114 53 169 76
110 46 317 148 325 160 3 4 12 9 20 12 8 2 10 7 4 10 -5 4 -39 -10 -74 -29z"/>
<path d="M3461 2244 c0 -11 3 -14 6 -6 3 7 2 16 -1 19 -3 4 -6 -2 -5 -13z"/>
<path d="M4488 2224 c-16 -8 -28 -20 -27 -27 0 -9 2 -9 6 1 2 6 13 12 23 12
10 0 20 7 24 15 6 18 8 18 -26 -1z"/>
<path d="M4380 2169 c-30 -15 -98 -47 -150 -70 -165 -73 -225 -102 -214 -106
22 -7 414 173 429 197 9 15 -4 11 -65 -21z"/>
<path d="M4754 2170 c-11 -18 -21 -25 -25 -19 -8 13 -41 -2 -40 -17 1 -5 -5
-9 -11 -9 -7 0 -20 -7 -28 -15 -8 -9 -22 -15 -30 -15 -8 0 -22 -7 -31 -17 -10
-11 -21 -18 -25 -16 -12 3 -84 -33 -84 -42 0 -4 -16 -11 -35 -14 -21 -4 -35
-13 -35 -22 0 -8 -11 -20 -25 -26 -14 -6 -25 -15 -25 -20 0 -5 -4 -7 -9 -4 -5
3 -22 -1 -37 -9 -16 -8 -37 -15 -46 -15 -10 0 -18 -4 -18 -10 0 -5 -8 -10 -18
-10 -11 0 -27 -9 -37 -20 -10 -11 -26 -20 -37 -20 -10 0 -18 -4 -18 -10 0 -5
-7 -7 -15 -4 -8 4 -15 1 -15 -6 0 -7 -7 -10 -15 -7 -8 4 -17 2 -19 -2 -5 -8
-105 -31 -156 -36 -31 -3 -191 -23 -248 -30 l-43 -6 2 -360 c0 -197 2 -359 4
-359 4 0 759 282 957 358 81 30 145 59 142 63 -2 4 6 5 18 1 14 -3 19 -1 14 6
-4 8 -2 10 8 6 23 -9 39 5 25 22 -10 12 -9 13 6 8 12 -5 16 -4 12 3 -5 7 0 9
13 6 11 -3 20 0 20 6 0 8 5 9 19 1 25 -13 41 -13 41 1 0 5 -4 8 -9 4 -5 -3
-12 -1 -15 4 -4 5 2 12 11 14 10 2 6 3 -9 1 -16 -2 -28 1 -28 6 0 6 5 10 11
10 7 0 18 8 26 18 13 15 14 15 9 0 -3 -12 -1 -15 10 -11 7 3 14 9 14 14 0 5
15 9 33 10 17 0 26 3 20 6 -7 2 -13 9 -13 15 0 6 7 8 15 4 9 -3 15 0 15 10 0
8 7 14 17 12 10 -2 22 7 30 22 7 14 13 19 13 13 0 -7 4 -13 10 -13 5 0 6 7 3
17 -4 10 -2 14 5 9 6 -3 14 -1 18 5 3 6 0 15 -7 20 -8 5 -9 9 -3 9 6 0 17 -7
24 -15 13 -16 35 -21 25 -6 -3 5 3 12 12 14 14 4 13 5 -4 6 -22 1 -34 21 -12
21 5 0 8 4 4 10 -3 5 -13 7 -23 4 -16 -5 -16 -5 1 6 9 6 17 19 17 28 0 11 3
13 8 5 9 -14 63 -36 70 -28 3 3 0 5 -6 5 -7 0 -12 5 -12 11 0 5 4 8 9 5 19
-12 18 34 -2 51 -20 18 -20 18 -13 -9 3 -15 2 -29 -3 -33 -14 -8 -25 35 -11
49 11 11 16 13 50 15 11 0 20 7 20 14 0 7 9 18 20 25 31 19 25 -5 -9 -37 l-29
-27 23 -10 c18 -9 27 -7 45 6 13 9 20 23 17 31 -4 11 -6 11 -6 -1 -1 -17 -38
-43 -45 -32 -8 14 11 35 25 27 9 -6 11 -4 6 8 -3 9 -2 19 4 22 5 4 7 11 4 16
-4 5 1 9 9 9 19 0 30 -17 14 -23 -7 -2 0 -4 16 -4 17 0 23 2 16 7 -7 4 -19 25
-26 46 -16 47 -17 57 -4 49 6 -4 8 -10 5 -15 -3 -5 3 -8 14 -7 11 0 18 5 15 9
-3 4 6 13 18 20 14 8 23 23 24 39 1 28 37 17 -371 124 -116 30 -220 55 -232
55 -14 0 -29 -11 -39 -30z m614 -169 c10 -6 7 -10 -11 -13 -18 -4 -24 -1 -20
9 6 15 13 16 31 4z m-50 -79 c2 -7 -1 -12 -8 -12 -6 0 -9 4 -6 9 4 5 1 12 -4
14 -6 3 -5 4 2 3 6 -1 14 -8 16 -14z m-278 -266 c0 -11 -19 -15 -25 -6 -3 5 1
10 9 10 9 0 16 -2 16 -4z"/>
<path d="M2270 2158 c-58 -16 -154 -40 -213 -55 -70 -17 -104 -29 -95 -34 9
-6 9 -9 1 -9 -6 0 -15 5 -18 10 -4 6 -13 7 -23 1 -9 -4 -59 -19 -109 -31 -60
-15 -93 -28 -93 -37 0 -16 -17 -18 -22 -2 -3 8 -32 4 -96 -11 -50 -12 -89 -26
-86 -31 3 -5 -2 -6 -11 -3 -14 6 -239 -45 -232 -53 2 -2 35 -14 73 -27 68 -24
97 -22 90 7 -1 7 -1 9 1 4 3 -4 10 -4 15 -1 7 4 8 2 4 -4 -4 -7 -2 -12 3 -12
6 0 11 -5 11 -11 0 -8 -4 -8 -14 0 -10 9 -16 9 -21 1 -8 -13 -9 -12 26 -27 24
-11 26 -10 21 9 -5 19 -4 19 27 4 19 -10 31 -12 31 -6 0 6 -13 16 -30 21 -26
9 -28 13 -17 30 16 25 30 24 22 -2 -6 -18 -5 -19 14 -7 12 7 19 18 17 25 -3 6
7 19 22 28 l27 16 -23 -20 -23 -20 21 -11 c17 -9 20 -18 16 -38 -3 -15 -3 -21
0 -14 5 10 10 9 25 -4 26 -24 33 -13 9 14 -11 12 -20 27 -20 34 0 9 3 9 10 -2
8 -13 10 -13 10 2 0 9 -4 20 -10 23 -5 3 -10 12 -10 18 0 7 7 3 15 -7 16 -21
17 -21 33 9 9 17 10 12 9 -26 -2 -37 -5 -45 -17 -41 -11 4 -12 2 -4 -7 6 -6
18 -9 28 -5 13 5 16 13 11 35 -4 19 -3 29 5 29 6 0 9 -4 6 -9 -3 -5 1 -11 9
-15 22 -8 28 12 9 32 -10 9 -20 17 -23 17 -3 0 -5 6 -5 13 1 6 -2 12 -8 12 -5
0 -7 4 -3 10 8 12 35 1 32 -13 -1 -7 7 -11 18 -10 11 1 15 0 8 -3 -13 -6 -6
-34 8 -34 5 0 18 9 29 20 12 12 25 18 30 15 6 -4 10 0 10 7 0 10 2 10 9 -1 5
-8 6 -21 3 -30 -4 -10 3 -8 18 7 13 12 32 22 41 22 10 0 20 4 23 9 3 5 15 7
26 4 15 -4 19 -2 14 10 -5 15 -24 14 -49 -3 -5 -3 -26 0 -45 7 l-35 13 37 -5
c25 -4 45 -1 61 10 22 14 24 14 35 -10 6 -14 9 -31 6 -39 -4 -11 1 -15 23 -13
21 2 28 -2 27 -15 -1 -10 3 -18 8 -18 6 0 5 -6 -2 -15 -6 -8 -9 -19 -6 -24 4
-5 2 -12 -4 -16 -5 -3 -10 -12 -10 -18 0 -7 9 -1 19 12 14 18 20 21 24 10 4
-11 6 -10 6 3 1 9 -4 18 -10 20 -7 2 -6 8 4 16 12 10 17 10 23 1 5 -8 3 -9 -6
-4 -10 6 -12 4 -6 -11 15 -35 12 -49 -9 -46 -14 2 -16 0 -7 -6 7 -5 12 -15 10
-22 -5 -23 -31 -49 -42 -43 -6 3 -8 2 -3 -2 10 -12 50 -17 43 -7 -3 5 2 9 11
9 13 0 12 -4 -5 -18 -19 -15 -20 -19 -7 -29 14 -12 29 -11 68 5 12 5 17 2 17
-8 0 -9 -9 -19 -20 -22 -21 -7 -28 -25 -10 -25 6 0 10 4 10 9 0 5 9 12 19 16
12 4 18 12 14 21 -3 7 0 14 6 14 20 0 12 -42 -9 -47 -27 -7 -15 -23 19 -23 15
0 32 -5 39 -12 9 -9 12 -9 12 0 0 7 -4 12 -9 12 -5 0 -11 10 -14 23 -5 20 -4
19 14 -6 12 -15 24 -25 29 -22 4 3 10 -1 13 -9 4 -10 0 -12 -14 -9 -13 4 -19
0 -19 -11 0 -10 5 -14 10 -11 6 4 23 -1 37 -10 20 -13 25 -14 21 -4 -4 11 4
14 33 14 36 0 37 -1 22 -18 -11 -12 -19 -14 -24 -6 -5 8 -8 8 -13 0 -4 -6 -3
-11 3 -11 5 0 18 -8 27 -17 15 -15 17 -15 12 -2 -4 9 2 20 14 28 18 11 20 11
14 -4 -7 -20 11 -58 25 -50 5 4 12 -2 16 -11 6 -16 7 -16 13 1 6 18 8 18 32
-6 14 -14 27 -32 30 -40 3 -8 9 -10 14 -5 5 5 4 11 -3 13 -16 6 2 43 20 43 8
0 7 -4 -3 -11 -11 -7 -12 -12 -3 -15 7 -3 9 -12 6 -20 -3 -8 0 -14 6 -14 6 0
11 5 11 11 0 5 4 8 10 4 11 -7 3 -32 -13 -38 -7 -2 -4 -3 5 -2 10 2 21 -1 24
-6 3 -5 10 -6 17 -2 7 4 4 9 -8 13 -18 6 -17 7 3 12 12 4 20 3 17 -2 -3 -4 4
-10 15 -13 13 -3 18 -11 14 -20 -8 -21 28 -32 42 -12 11 15 13 15 23 -2 10
-17 10 -16 11 5 0 12 4 22 9 22 6 0 6 -12 1 -29 -6 -21 -5 -31 4 -34 9 -4 11
2 8 19 -2 14 0 24 7 24 10 0 15 -16 14 -47 -1 -18 66 -27 85 -11 15 11 16 11
4 -4 -15 -19 -2 -31 22 -22 9 3 16 2 16 -4 0 -6 13 -7 33 -3 18 5 41 5 52 1
20 -7 20 -7 0 -12 -19 -5 -19 -5 -1 -13 12 -5 21 -3 27 6 6 10 9 11 9 1 0 -7
-7 -15 -15 -19 -12 -4 -10 -9 11 -19 32 -17 34 -17 34 -3 0 5 -5 7 -12 3 -7
-4 -8 -3 -4 4 4 7 16 12 27 12 11 0 17 -5 14 -10 -3 -5 0 -10 7 -10 10 0 9 -3
-2 -11 -11 -8 -7 -9 19 -5 27 5 32 3 27 -9 -3 -8 -1 -15 4 -15 6 0 10 6 10 13
1 6 9 2 20 -11 14 -17 25 -22 41 -17 16 5 19 4 14 -6 -6 -9 -3 -10 10 -5 11 4
22 2 27 -6 6 -10 8 -10 8 0 0 6 7 12 15 12 8 0 12 -6 9 -15 -5 -11 0 -13 24
-5 26 7 33 5 47 -13 14 -19 15 -19 10 -3 -5 16 -3 17 10 6 8 -7 13 -15 11 -19
-3 -4 -1 -13 5 -21 7 -13 9 -13 9 0 0 9 10 16 25 16 14 1 23 -2 20 -6 -7 -11
52 -21 81 -14 17 4 24 2 24 -8 0 -8 7 -15 15 -15 8 0 15 3 15 7 0 3 10 6 21 7
17 2 19 -1 10 -10 -6 -6 -11 -18 -11 -26 0 -13 2 -14 9 -2 5 7 14 10 20 7 6
-4 11 -2 11 5 0 9 3 9 14 0 12 -10 14 36 13 321 l-2 333 -50 3 c-107 5 -322
34 -367 48 -26 9 -52 13 -58 9 -5 -3 -10 -2 -10 2 0 5 -9 10 -20 11 -44 4 -50
6 -50 15 0 6 -3 7 -7 4 -3 -4 -15 1 -26 10 -11 10 -17 12 -13 6 4 -8 2 -13 -7
-13 -8 0 -18 7 -21 16 -3 8 -11 12 -17 8 -6 -3 -14 -3 -18 2 -7 10 -69 35 -88
37 -7 0 -13 5 -13 10 0 5 -9 7 -20 4 -11 -3 -18 -2 -15 3 5 8 -24 25 -37 22
-5 -1 -8 3 -8 9 0 6 -9 9 -20 6 -11 -3 -23 0 -27 5 -3 7 -1 8 5 4 7 -4 12 -5
12 -1 0 3 -25 17 -55 31 -30 15 -55 29 -55 33 0 4 -9 7 -20 8 -26 2 -80 43
-80 61 0 12 -3 12 -15 2 -10 -8 -15 -9 -15 -2 0 6 -14 27 -31 47 -37 42 -43
42 -189 3z m194 -24 c3 -8 2 -12 -4 -9 -6 3 -10 10 -10 16 0 14 7 11 14 -7z
m-512 -98 c3 2 8 -2 11 -11 7 -16 -18 -22 -28 -5 -3 5 -13 7 -23 4 -14 -5 -15
-4 -2 5 8 6 11 11 7 11 -5 0 -5 5 -1 12 5 8 11 6 19 -5 7 -9 14 -14 17 -11z
m-72 4 c-12 -8 -12 -10 -1 -10 23 0 4 -13 -24 -16 -13 -1 -27 2 -30 7 -3 5 2
6 11 2 11 -4 15 -3 11 5 -4 6 1 13 10 15 31 8 39 7 23 -3z m151 -9 c4 7 11 10
15 6 4 -4 -1 -13 -10 -20 -15 -11 -16 -18 -8 -33 9 -16 7 -20 -9 -21 -20 -2
-28 7 -34 36 -3 14 1 18 16 14 13 -4 18 -1 16 8 -2 8 -2 10 1 5 2 -4 8 -2 13
5z m-233 -43 c-6 -16 -48 -43 -48 -30 0 13 28 42 42 42 5 0 8 -5 6 -12z m176
-3 c3 -8 1 -15 -4 -15 -6 0 -10 7 -10 15 0 8 2 15 4 15 2 0 6 -7 10 -15z
m-358 -32 c-10 -10 -19 5 -10 18 6 11 8 11 12 0 2 -7 1 -15 -2 -18z m219 17
c3 -5 1 -10 -4 -10 -6 0 -11 5 -11 10 0 6 2 10 4 10 3 0 8 -4 11 -10z m256
-180 c9 -1 7 -4 -5 -12 -15 -8 -21 -8 -24 0 -2 6 -9 9 -17 6 -9 -4 -12 1 -10
13 2 10 4 20 4 22 1 2 9 -3 19 -12 10 -10 25 -17 33 -17z m62 -10 c3 -11 0
-23 -5 -27 -7 -3 -8 -1 -4 5 4 7 1 12 -9 12 -13 0 -14 3 -3 15 7 8 14 14 14
15 1 0 4 -9 7 -20z m-81 -42 c-6 -6 -15 -8 -19 -4 -4 4 -1 11 7 16 19 12 27 3
12 -12z m333 -174 c-9 -9 -19 -13 -23 -10 -3 4 0 11 8 16 24 15 33 11 15 -6z
m222 -139 c0 -17 -13 -20 -21 -6 -4 5 0 12 6 14 7 3 13 6 14 6 0 1 1 -6 1 -14z
m243 -75 c0 -5 -4 -10 -10 -10 -5 0 -10 5 -10 10 0 6 5 10 10 10 6 0 10 -4 10
-10z m258 -125 c-3 -3 -9 2 -12 12 -6 14 -5 15 5 6 7 -7 10 -15 7 -18z m306
-63 c3 -5 -1 -9 -9 -9 -8 0 -15 4 -15 9 0 4 4 8 9 8 6 0 12 -4 15 -8z m164
-24 c-2 -6 -10 -13 -16 -14 -7 -1 -8 0 -2 3 5 2 8 9 4 14 -3 5 0 9 6 9 7 0 10
-5 8 -12z"/>
<path d="M3107 2169 c7 -7 15 -10 18 -7 3 3 -2 9 -12 12 -14 6 -15 5 -6 -5z"/>
<path d="M3498 2145 c-3 -13 -2 -22 2 -20 11 7 20 45 10 45 -4 0 -10 -11 -12
-25z"/>
<path d="M3369 2143 c-13 -16 -12 -17 4 -4 16 13 21 21 13 21 -2 0 -10 -8 -17
-17z"/>
<path d="M3460 2142 c-13 -10 -21 -25 -18 -32 3 -9 12 -3 27 18 25 36 23 40
-9 14z"/>
<path d="M3170 2130 c0 -5 5 -10 11 -10 5 0 7 5 4 10 -3 6 -8 10 -11 10 -2 0
-4 -4 -4 -10z"/>
<path d="M3310 2130 c0 -5 5 -10 10 -10 6 0 10 5 10 10 0 6 -4 10 -10 10 -5 0
-10 -4 -10 -10z"/>
<path d="M3523 2113 c-10 -10 -14 -15 -8 -11 5 3 14 6 20 6 5 0 11 5 13 11 5
16 -3 14 -25 -6z"/>
<path d="M3665 2110 c-3 -6 1 -7 9 -4 18 7 21 14 7 14 -6 0 -13 -4 -16 -10z"/>
<path d="M5270 2109 c0 -5 9 -9 20 -9 11 0 20 2 20 4 0 2 -9 6 -20 9 -11 3
-20 1 -20 -4z"/>
<path d="M3210 2089 c0 -5 5 -7 10 -4 6 3 10 8 10 11 0 2 -4 4 -10 4 -5 0 -10
-5 -10 -11z"/>
<path d="M3358 2088 c9 -9 15 -9 24 0 9 9 7 12 -12 12 -19 0 -21 -3 -12 -12z"/>
<path d="M3417 2094 c-3 -6 -4 -23 -1 -38 3 -18 0 -28 -11 -32 -19 -8 -10 -24
13 -24 13 0 14 2 4 9 -11 7 -10 9 3 15 11 4 14 12 10 26 -4 11 -2 20 4 20 6 0
11 5 11 11 0 5 -4 8 -9 5 -5 -4 -11 -1 -13 6 -3 8 -7 8 -11 2z"/>
<path d="M4315 2090 c-3 -6 1 -7 9 -4 18 7 21 14 7 14 -6 0 -13 -4 -16 -10z"/>
<path d="M3350 2066 c14 -18 13 -19 -2 -13 -10 3 -18 2 -18 -3 0 -6 6 -10 14
-10 8 0 17 -12 19 -27 3 -23 4 -22 6 8 0 24 -5 41 -16 50 -17 13 -17 13 -3 -5z"/>
<path d="M3492 2073 c-19 -8 -34 -40 -17 -40 7 0 11 7 8 14 -6 16 18 14 29 -2
4 -5 8 0 8 13 0 22 -4 25 -28 15z"/>
<path d="M3285 2040 c-3 -5 -1 -10 4 -10 6 0 11 5 11 10 0 6 -2 10 -4 10 -3 0
-8 -4 -11 -10z"/>
<path d="M4195 2040 c-16 -7 -17 -9 -3 -9 9 -1 20 4 23 9 7 11 7 11 -20 0z"/>
<path d="M5416 2033 c-14 -15 -4 -23 22 -17 23 6 25 5 15 -8 -10 -12 -10 -15
2 -15 8 0 12 4 9 9 -3 4 0 8 5 8 6 0 11 5 11 12 0 6 -3 9 -6 5 -3 -3 -16 -2
-29 3 -13 5 -26 6 -29 3z"/>
<path d="M3460 2005 c-7 -9 -11 -17 -9 -20 3 -2 10 5 17 15 14 24 10 26 -8 5z"/>
<path d="M3535 1990 c-3 -5 -2 -10 4 -10 5 0 13 5 16 10 3 6 2 10 -4 10 -5 0
-13 -4 -16 -10z"/>
<path d="M3960 1970 c0 -5 5 -10 11 -10 5 0 7 5 4 10 -3 6 -8 10 -11 10 -2 0
-4 -4 -4 -10z"/>
<path d="M3503 1955 c-3 -9 -3 -18 -1 -21 3 -3 8 4 11 16 6 23 -1 27 -10 5z"/>
<path d="M5397 1951 c3 -12 9 -21 14 -21 14 0 11 16 -5 29 -12 10 -13 8 -9 -8z"/>
<path d="M1879 1949 c-10 -6 -7 -9 14 -9 15 0 27 -5 27 -11 0 -7 -9 -9 -21 -6
-20 5 -20 5 -4 -13 13 -15 20 -16 30 -7 28 26 -13 67 -46 46z"/>
<path d="M3766 1938 c3 -5 10 -6 15 -3 13 9 11 12 -6 12 -8 0 -12 -4 -9 -9z"/>
<path d="M1957 1933 c-10 -9 -9 -23 2 -23 5 0 11 7 15 15 5 15 -5 20 -17 8z"/>
<path d="M5354 1932 c-9 -5 -8 -10 2 -19 8 -8 15 -9 19 -3 3 6 1 10 -5 10 -6
0 -8 5 -5 10 7 12 4 12 -11 2z"/>
<path d="M1758 1919 c-24 -14 -23 -39 2 -39 11 0 20 5 20 10 0 6 -5 10 -12 10
-9 0 -9 3 -1 11 15 15 34 3 26 -16 -3 -8 0 -15 6 -15 15 0 14 23 -1 38 -14 14
-18 14 -40 1z"/>
<path d="M1848 1923 c7 -3 16 -2 19 1 4 3 -2 6 -13 5 -11 0 -14 -3 -6 -6z"/>
<path d="M1960 1900 c-12 -8 -12 -10 -1 -10 8 0 11 -3 8 -6 -4 -4 -13 -2 -21
5 -11 9 -15 8 -20 -5 -9 -24 -7 -46 4 -39 6 3 10 0 10 -7 0 -7 6 -4 12 7 7 11
18 26 25 33 25 26 13 41 -17 22z"/>
<path d="M1850 1890 c-13 -8 -12 -10 3 -10 9 0 17 -4 17 -9 0 -11 31 -24 38
-16 5 4 -32 45 -40 45 -2 0 -10 -5 -18 -10z"/>
<path d="M1562 1850 c4 -43 -5 -49 -45 -29 -14 7 -18 7 -12 1 6 -6 29 -17 52
-25 l42 -14 -15 30 c-9 16 -14 40 -11 53 2 13 0 24 -5 24 -6 0 -8 -18 -6 -40z"/>
<path d="M1690 1879 c0 -4 11 -14 25 -23 30 -20 58 -22 33 -2 -10 7 -18 18
-18 24 0 6 -9 10 -20 9 -11 -1 -20 -4 -20 -8z"/>
<path d="M1823 1842 c10 -10 14 -23 10 -28 -4 -5 -2 -4 5 2 16 13 5 44 -16 44
-13 0 -13 -2 1 -18z"/>
<path d="M1690 1844 c0 -3 8 -13 17 -22 18 -18 68 -28 57 -11 -3 6 -12 8 -20
5 -8 -3 -20 3 -26 14 -12 19 -28 27 -28 14z"/>
<path d="M1650 1819 c0 -5 12 -9 27 -9 30 0 27 9 -6 15 -11 2 -21 0 -21 -6z"/>
<path d="M1606 1795 c4 -9 15 -20 26 -26 20 -11 20 -11 2 15 -21 28 -37 34
-28 11z"/>
<path d="M1790 1790 c6 -11 16 -20 22 -20 6 0 3 9 -7 20 -10 11 -20 20 -22 20
-2 0 1 -9 7 -20z"/>
<path d="M1897 1793 c7 -17 24 -17 48 1 18 13 17 14 -17 13 -25 -1 -34 -5 -31
-14z"/>
<path d="M1650 1791 c0 -5 5 -13 10 -16 6 -3 10 -2 10 4 0 5 -4 13 -10 16 -5
3 -10 2 -10 -4z"/>
<path d="M1970 1790 c0 -5 7 -10 16 -10 8 0 12 5 9 10 -3 6 -10 10 -16 10 -5
0 -9 -4 -9 -10z"/>
<path d="M1750 1786 c0 -2 7 -9 15 -16 9 -7 15 -8 15 -2 0 5 -7 12 -15 16 -8
3 -15 4 -15 2z"/>
<path d="M1867 1766 c-4 -10 -1 -13 8 -9 8 3 12 9 9 14 -7 12 -11 11 -17 -5z"/>
<path d="M5130 1756 c0 -2 7 -6 15 -10 8 -3 15 -1 15 4 0 6 -7 10 -15 10 -8 0
-15 -2 -15 -4z"/>
<path d="M1975 1730 c-3 -5 -1 -10 4 -10 6 0 11 5 11 10 0 6 -2 10 -4 10 -3 0
-8 -4 -11 -10z"/>
<path d="M1910 1714 c0 -1 8 -8 17 -15 9 -8 14 -9 10 -2 -4 6 -1 13 5 16 7 3
3 4 -9 4 -13 -1 -23 -2 -23 -3z"/>
<path d="M2150 1630 c20 -13 33 -13 25 0 -3 6 -14 10 -23 10 -15 0 -15 -2 -2
-10z"/>
<path d="M2080 1626 c0 -2 7 -7 16 -10 8 -3 12 -2 9 4 -6 10 -25 14 -25 6z"/>
<path d="M2160 1600 c20 -13 33 -13 25 0 -3 6 -14 10 -23 10 -15 0 -15 -2 -2
-10z"/>
<path d="M2205 1580 c3 -5 8 -10 11 -10 2 0 4 5 4 10 0 6 -5 10 -11 10 -5 0
-7 -4 -4 -10z"/>
<path d="M2259 1558 c11 -15 41 -15 41 -1 0 3 -6 3 -14 0 -7 -3 -20 0 -27 6
-11 10 -11 9 0 -5z"/>
<path d="M4930 1539 c0 -5 5 -7 10 -4 6 3 10 8 10 11 0 2 -4 4 -10 4 -5 0 -10
-5 -10 -11z"/>
<path d="M2870 1310 c0 -8 24 -20 41 -20 6 0 8 4 5 9 -8 12 -46 21 -46 11z"/>
<path d="M3591 1054 c0 -11 3 -14 6 -6 3 7 2 16 -1 19 -3 4 -6 -2 -5 -13z"/>
</g>
</svg>
